
<svg width="60px" height="61px" viewBox="0 0 60 61" version="1.1" xmlns="http://www.w3.org/2000/svg" xmlns:xlink="http://www.w3.org/1999/xlink">
    <!-- Generator: Sketch 42 (36781) - http://www.bohemiancoding.com/sketch -->
    <desc>Created with Sketch.</desc>
    <defs>
        <polygon id="path-1" points="4.06575815e-21 59.7014925 59.9985 59.7014925 59.9985 0.00137571771 0 0.00137571771"></polygon>
    </defs>
    <g id="Page-1" stroke="none" stroke-width="1" fill="none" fill-rule="evenodd">
        <polygon id="Fill-1" fill="#C9CED1" points="31.28943 30.1783881 21.44943 17.8801791 28.70913 17.8801791 38.54913 30.1783881 28.70913 42.417194 21.44943 42.417194"></polygon>
        <g id="Group-4" transform="translate(0.000000, 0.297313)">
            <mask id="mask-2" fill="white">
                <use xlink:href="#path-1"></use>
            </mask>
            <g id="Clip-3"></g>
            <path d="M55.64919,41.0990149 C49.41639,55.1718507 32.83899,61.5757313 18.69549,55.3736418 C4.55259,49.1718507 -1.88331,32.6766269 4.34949,18.603791 C10.58229,4.53095522 27.15999,-1.87262687 41.30349,4.32916418 C55.44669,10.5312537 61.88199,27.0258806 55.64919,41.0990149 M42.09789,2.53573134 C26.96019,-4.1021791 9.21789,2.75155224 2.54679,17.8133433 C-4.12401,32.8751343 2.76399,50.5294627 17.90139,57.1673731 C33.03819,63.8049851 50.78049,56.9512537 57.45189,41.8891642 C64.12269,26.8273731 57.23469,9.17334328 42.09789,2.53573134" id="Fill-2" fill="#C9CED1" mask="url(#mask-2)"></path>
        </g>
    </g>
</svg>