<svg id="bug-only" data-name="Layer 1" xmlns="http://www.w3.org/2000/svg" viewBox="0 0 445.48 445.48"><defs><style>.cls-1{fill:#070606;}</style></defs><title>bug-only</title><path class="cls-1" d="M409.36,234.8v79.76a66.79,66.79,0,0,1-66.77,66.79H333.3V234.8Z"/><polygon class="cls-1" points="134.82 155.03 214.59 155.03 214.59 381.35 134.82 381.35 134.82 155.03 134.82 155.03"/><path class="cls-1" d="M118.12,381.35H103.29A66.8,66.8,0,0,1,36.5,314.56V155h81.62V381.35Z"/><path class="cls-1" d="M409.36,214.39V130.91a66.78,66.78,0,0,0-66.77-66.78H103.29A66.8,66.8,0,0,0,36.5,130.91l-.38,5.18,106.53.67H313.07a20.65,20.65,0,0,1,20.65,20.65v56.82l75.64.16Z"/><path class="cls-1" d="M312.9,155V314.56c0,36.88-33.61,66.79-70.49,66.79h-9.27V155Z"/></svg>