<svg version="1.1" id="Layer_1" xmlns="http://www.w3.org/2000/svg" xmlns:xlink="http://www.w3.org/1999/xlink" x="0px" y="0px"
	 viewBox="0 0 200 200" style="enable-background:new 0 0 200 200;" xml:space="preserve">
<style type="text/css">
	.st0{fill:#FFFFFF;}
</style>
<title>EHL-logo</title>
<path class="st0" d="M96.3,28.4L24.1,69.3v15h9.4v51.4h125.8V84.4h9.4v-15L96.3,28.4z M145,120.4H47.6v-50l48.7-27.5L145,70.4
	L145,120.4z"/>
<rect x="71.2" y="78.5" class="st0" width="50.3" height="12.8"/>
<rect x="71.2" y="98.1" class="st0" width="50.3" height="12.8"/>
<path class="st0" d="M31.6,140.8h-7.7c-0.3,0-0.5,0.2-0.5,0.5V163c0,0.3,0.2,0.5,0.5,0.5h7.7c0.3,0,0.5-0.2,0.5-0.5v-2.5
	c0-0.3-0.2-0.5-0.5-0.5h-4.3v-6.3h3.8c0.3,0,0.5-0.2,0.5-0.5v-2.5c0-0.3-0.2-0.5-0.5-0.5h-3.8v-5.8h4.3c0.3,0,0.5-0.2,0.5-0.5v-2.5
	C32.1,141.1,31.9,140.8,31.6,140.8C31.6,140.8,31.6,140.8,31.6,140.8z"/>
<path class="st0" d="M43.8,160.6c1.1-2.4,1.2-5.8,1.2-8.4c0-3.8,0-11.6-6.1-11.6s-6.1,7.9-6.1,11.6s0,11.6,6.1,11.6
	c1,0,1.9-0.2,2.8-0.7l1.2,1.8c0.1,0.1,0.2,0.2,0.3,0.2h0.1c0.1,0,0.2,0,0.3-0.1l1.9-1.3c0.1-0.1,0.2-0.2,0.2-0.3
	c0-0.1,0-0.3-0.1-0.4L43.8,160.6z M37.9,157.1c-0.2,0.2-0.3,0.5-0.1,0.7l1.5,2.2c-0.2,0-0.3,0.1-0.5,0.1c-1.8,0-2.1-3.8-2.1-7.9
	s0.2-7.9,2.1-7.9s2.1,3.8,2.1,7.9c0,1.5-0.1,2.9-0.2,4.1l-0.3-0.5c-0.1-0.1-0.2-0.2-0.3-0.2c-0.1,0-0.3,0-0.4,0.1L37.9,157.1z"/>
<path class="st0" d="M57.5,140.8h-2.9c-0.3,0-0.5,0.2-0.5,0.5v16.2c0,1.9-0.3,2.6-1.7,2.6c-0.6,0-1.5,0-1.5-2.9v-15.9
	c0-0.3-0.2-0.5-0.5-0.5h-2.9c-0.3,0-0.5,0.2-0.5,0.5v14.9c0,4,0.4,7.5,5.5,7.5c2.4,0,4-0.8,4.8-2.5c0.6-1.5,0.8-3,0.7-4.6v-15.3
	C58,141.1,57.8,140.8,57.5,140.8z"/>
<path class="st0" d="M66.8,141.2c-0.1-0.2-0.3-0.4-0.5-0.4H64c-0.2,0-0.4,0.2-0.5,0.4l-4.7,21.6c-0.1,0.3,0.1,0.6,0.4,0.6
	c0,0,0.1,0,0.1,0h2.8c0.2,0,0.5-0.2,0.5-0.4l0.7-3.8h3.5l0.7,3.8c0,0.2,0.3,0.4,0.5,0.4h3c0.3,0,0.5-0.2,0.5-0.5
	c0-0.1,0-0.2-0.1-0.2L66.8,141.2z M66.2,156H64l1.1-7.2l0.6,4.6L66.2,156z"/>
<path class="st0" d="M80.5,160h-4.3v-18.6c0-0.3-0.2-0.5-0.5-0.5h-2.9c-0.3,0-0.5,0.2-0.5,0.5V163c0,0.3,0.2,0.5,0.5,0.5h7.7
	c0.3,0,0.5-0.2,0.5-0.5v-2.5C81,160.2,80.8,160,80.5,160z"/>
<path class="st0" d="M98.3,140.8h-2.9c-0.3,0-0.5,0.2-0.5,0.5v7.9h-3.3v-7.9c0-0.3-0.2-0.5-0.5-0.5h-2.9c-0.3,0-0.5,0.2-0.5,0.5V163
	c0,0.3,0.2,0.5,0.5,0.5h2.9c0.3,0,0.5-0.2,0.5-0.5v-10.2h3.3V163c0,0.3,0.2,0.5,0.5,0.5h2.9c0.3,0,0.5-0.2,0.5-0.5v-21.6
	C98.8,141.1,98.6,140.8,98.3,140.8C98.3,140.8,98.3,140.8,98.3,140.8z"/>
<path class="st0" d="M106.8,140.6c-6.1,0-6.1,7.9-6.1,11.6s0,11.6,6.1,11.6s6.2-7.8,6.2-11.6S113,140.6,106.8,140.6z M106.8,160.1
	c-1.8,0-2.1-3.8-2.1-7.9s0.2-7.9,2.1-7.9s2.1,3.8,2.1,7.9S108.7,160.1,106.8,160.1z"/>
<path class="st0" d="M125.4,140.8h-2.9c-0.3,0-0.5,0.2-0.5,0.5v16.2c0,1.9-0.3,2.6-1.7,2.6c-0.6,0-1.5,0-1.5-2.9v-15.9
	c0-0.3-0.2-0.5-0.5-0.5h-2.9c-0.3,0-0.5,0.2-0.5,0.5v14.9c0,4,0.4,7.5,5.5,7.5c2.4,0,4-0.8,4.8-2.5c0.6-1.5,0.8-3,0.7-4.6v-15.3
	C125.9,141.1,125.7,140.8,125.4,140.8C125.4,140.8,125.4,140.8,125.4,140.8z"/>
<path class="st0" d="M131.7,148.6c-0.5-0.6-0.7-1.3-0.7-2c-0.1-1.2,0.8-2.2,1.9-2.3c0,0,0.1,0,0.1,0c0.8,0,1.5,0.3,2.1,0.8
	c0.2,0.1,0.4,0.1,0.5,0c0.2-0.1,0.3-0.3,0.3-0.4v-2.9c0-0.2-0.1-0.3-0.2-0.4c-1-0.6-2.1-0.8-3.3-0.8c-3.3,0-5.4,2.4-5.4,6.1
	c0,3.3,1.9,5,3.5,6.6c1.4,1.3,2.6,2.5,2.6,4.2c0,0.8-0.2,2.5-2,2.5c-0.9,0-1.8-0.4-2.5-1c-0.2-0.2-0.5-0.1-0.7,0.1
	c-0.1,0.1-0.1,0.2-0.1,0.3v2.9c0,0.2,0.1,0.3,0.2,0.4c1,0.8,2.2,1.2,3.5,1.1c3.2,0,5.6-2.6,5.6-6.2c0-3.2-1.3-4.8-3.2-6.7
	L131.7,148.6z"/>
<path class="st0" d="M141.9,140.8H139c-0.3,0-0.5,0.2-0.5,0.5c0,0,0,0,0,0V163c0,0.3,0.2,0.5,0.5,0.5h2.9c0.3,0,0.5-0.2,0.5-0.5
	v-21.6C142.4,141.1,142.2,140.8,141.9,140.8C141.9,140.8,141.9,140.8,141.9,140.8z"/>
<path class="st0" d="M155.4,140.8h-2.9c-0.3,0-0.5,0.2-0.5,0.5v7.8l0.3,4.4l-3.8-12.3c-0.1-0.2-0.3-0.4-0.5-0.4h-2.8
	c-0.3,0-0.5,0.2-0.5,0.5V163c0,0.3,0.2,0.5,0.5,0.5h2.9c0.3,0,0.5-0.2,0.5-0.5v-8l-0.3-4.3l3.8,12.4c0.1,0.2,0.3,0.4,0.5,0.4h2.7
	c0.3,0,0.5-0.2,0.5-0.5v-21.6C155.9,141.1,155.7,140.8,155.4,140.8C155.4,140.8,155.4,140.8,155.4,140.8z"/>
<path class="st0" d="M169.8,151.6c0-0.3-0.2-0.5-0.5-0.5c0,0,0,0,0,0H164c-0.3,0-0.5,0.2-0.5,0.5c0,0,0,0,0,0v2.5
	c0,0.3,0.2,0.5,0.5,0.5h1.9v0.7c0,4.8-1.1,4.8-2,4.8c-0.6,0-2,0-2-7.9c0-5.5,0.3-7.9,2-7.9c1.3,0,1.6,0.8,2,2.4
	c0,0.1,0.1,0.3,0.3,0.4c0.1,0.1,0.3,0.1,0.4,0l2.7-1.1c0.2-0.1,0.4-0.4,0.3-0.6c-0.9-3.3-2.6-4.8-5.8-4.8c-5.5,0-6,5.8-6,11.7
	s0.5,11.6,6.2,11.6c1.4,0.1,2.7-0.4,3.6-1.4c2.1-2.1,2.1-6.4,2-9.4L169.8,151.6z"/>
<path class="st0" d="M32.1,193.6h9.1v6.4H24.6v-29.1h7.6V193.6z"/>
<path class="st0" d="M51.2,177.3v4.9h8.5v6.4h-8.5v5h9v6.4H43.7v-29.1h16.6v6.4H51.2z"/>
<path class="st0" d="M64.9,170.9h7.6l13.8,17.8h0.1v-17.8h7.6V200h-7.6l-13.9-17.8h-0.1V200h-7.6V170.9z"/>
<path class="st0" d="M98.8,170.9h10.7c8-0.2,14.7,6.1,14.9,14.2c0.2,8-6.1,14.7-14.2,14.9c-0.3,0-0.5,0-0.8,0H98.8V170.9z
	 M106.4,193.6h1.7c4.5,0,8.4-2.5,8.4-8.1c0-5.2-3.4-8.1-8.3-8.1h-1.8V193.6z"/>
<path class="st0" d="M135.4,177.3v4.9h8.5v6.4h-8.5v5h9v6.4h-16.6v-29.1h16.5v6.4H135.4z"/>
<path class="st0" d="M173.3,200h-9.4l-7.1-11.2h-0.1V200h-7.6v-29.1h11.3c5.8,0,10.1,2.7,10.1,8.9c0,4-2.2,7.5-6.4,8.2L173.3,200z
	 M156.6,183.9h0.7c2.5,0,5.2-0.5,5.2-3.6s-2.8-3.6-5.2-3.6h-0.7V183.9z"/>
</svg>