<svg version="1.1" id="Layer_1" xmlns="http://www.w3.org/2000/svg" xmlns:xlink="http://www.w3.org/1999/xlink" x="0px" y="0px"
	 viewBox="0 0 200 200" style="enable-background:new 0 0 200 200;" xml:space="preserve">
<style type="text/css">
	.st0{fill:#FFFFFF;}
</style>
<title>member-fdic-logo</title>
<path class="st0" d="M25.9,92.4c2.2,5.7,3.9,11.8,6.1,17.5c2.4-5.7,4.3-11.7,6.6-17.5h13.4v3.4c-1.3,0-2.6,0.2-3.9,0.7
	c-1.4,5.4-0.6,14.2-0.5,20.4c0.9,0.9,2.7,0.9,4.4,1v3.4H36.3v-3.4c1.6-0.4,3.9,0,4.6-1.2v-17c-2.9,7.1-5.5,14.5-8.3,21.6H29
	c-2.3-7.3-5-14.1-7.3-21.4c-0.4,5.5-0.4,11,0,16.5c0.5,1.4,2.6,1.1,4.1,1.5v3.4H12.5v-3.4c1.5-0.2,3.1-0.1,3.9-1
	c0.4-6.7,0.4-13.5,0-20.2c-0.6-1-2.2-1-3.9-1v-3.4L25.9,92.4z"/>
<path class="st0" d="M117.3,92.4h9v10c1.6-0.7,2.6-1.9,4.6-2.2c11.9-1.7,13,18.3,4.1,21.4c-3.6,1.3-7.8,0.2-9.7-2.2
	c-0.8,1.4-1.7,2.7-4.4,2.2c-0.3-8.4,0.6-17.9-0.5-25.5c-0.6-0.7-2.4-0.2-3.2-0.7L117.3,92.4z M130.6,118.1
	c5.4-0.3,5.8-14.4-0.2-14.1C124,104.4,125.1,118.4,130.6,118.1L130.6,118.1z"/>
<path class="st0" d="M98.8,103.3c2-1,3-2.7,5.1-3.2c10-2,8.3,8.1,8.3,17c0.8,0.7,2.3,0.8,3.9,0.7v3.4h-12.4v-3.4
	c0.9,0.1,1.8-0.1,2.7-0.5c0.8-3.7,0.8-10-0.5-13.1c-7-2.5-7.5,6.7-6.6,12.9c0.8,0.6,1.7,0.8,2.7,0.7v3.4H90.8v-3.4
	c0.9-0.1,1.8-0.2,2.7-0.5c-0.1-5.2,2.3-14.9-3.9-13.4c-4.1,1-3.6,7.6-3.2,12.9c0.6,0.8,1.8,0.8,2.9,1v3.4H76.7v-3.4
	c1.2,0.1,2.3-0.1,3.4-0.5c1.3-3,0.9-9.8,0.2-13.1c-0.8-0.6-2.2-0.5-3.7-0.5v-3.2h9.5v2.7c1.4-1.4,4.7-4,8.3-3.4
	C96.3,100.3,98,101.5,98.8,103.3z"/>
<path class="st0" d="M73.8,111.6H60.1c-1.2,7.3,9.5,8.8,10,1.9h3.7c0.3,7.4-8.5,10.3-14.6,7.3c-7.9-4-6.1-19.3,3.2-20.7
	C69.7,99.1,74,104,73.8,111.6z M60.4,108.2h7.5C68.9,102,59.6,102.4,60.4,108.2L60.4,108.2z"/>
<path class="st0" d="M164.2,111.6h-13.8c-1.3,7.1,9.4,8.9,9.7,1.9h4.1c-1,12-18.3,10.4-19.7,0.2c-1.1-7.8,3.1-15.2,12.2-13.6
	C161.6,101,163.8,105.6,164.2,111.6z M150.6,108.2h7.5C159.1,102,149.7,102.3,150.6,108.2L150.6,108.2z"/>
<path class="st0" d="M182.2,103.1c-6.4-1-6,8.3-5.4,14.3c1.2,0.4,2.4,0.6,3.6,0.5v3.4h-13.6v-3.4c1.7,0,3.3-0.1,4.1-1
	c-0.2-4,0.3-8.6-0.2-12.2c-0.4-1.2-2.3-1-3.9-1v-3.2h9.5v2.2c1.7-1.3,4.6-3.8,8-2.4c3.1,1.2,3.4,6.7,0.5,8.3c-1.6,0.5-3.4-0.4-3.9-2
	C180.5,105.3,181,103.8,182.2,103.1z"/>
<path class="st0" d="M187.5,133.2v18.1c-2.5-1.2-4.5-2.6-6.6-3.4c-11.7-4.7-24.5,2-25.8,14.3c-1.1,10.5,5.5,19.2,15.8,20.2
	c7.6,0.7,11.6-2.5,16.5-4.9v18.2c-2.8,2.3-6.7,3.4-10.9,4.1h-9.2c-8.8-1.3-16.3-5-21.4-10.2c-6.2-6.3-10.6-15.4-9.7-27.5
	c1.4-17.3,15.3-30.9,32.6-32C175.2,129.7,181.6,130.8,187.5,133.2z"/>
<path class="st0" d="M51.6,131.5v15.9H32.2c0,2.4,0,6.8,0,10c5.5,0.6,12.1,0.1,18,0.2v16H31.9v26H13v-68.2L51.6,131.5L51.6,131.5z"
	/>
<path class="st0" d="M54.3,131.5c10.5,0.5,20.4-0.8,29.2,0.2c16.5,1.9,27.8,11.7,29.7,28.6c0.9,8.1-0.1,17.3-4.1,24.1
	c-9,15-29.4,16.4-54.9,15.3v-67.5C54,131.9,54,131.6,54.3,131.5z M90,178.3c5.2-5.4,6.2-16.3,2.2-23.3c-2.9-5.1-10.7-8.8-18.5-7.5
	c-0.9,0.1-0.5,1.3-0.5,1.7c-0.6,11.6,0.5,23.5,0,34.8C80.1,183.4,85.9,182.6,90,178.3z"/>
<path class="st0" d="M115.6,131.5h18.7v68.2h-19v-67.5C115.3,131.9,115.3,131.6,115.6,131.5z"/>
</svg>