<?xml version="1.0" encoding="utf-8"?>
<!-- Generator: Adobe Illustrator 20.1.0, SVG Export Plug-In . SVG Version: 6.00 Build 0)  -->
<svg version="1.1" id="Layer_1" xmlns="http://www.w3.org/2000/svg" xmlns:xlink="http://www.w3.org/1999/xlink" x="0px" y="0px"
	 viewBox="0 0 200 200" style="enable-background:new 0 0 200 200;" xml:space="preserve">
<title>instagram-solid</title>
<circle class="st0" cx="100" cy="100" r="17.1"/>
<path class="st0" d="M139.9,69.8c-1.7-4.5-5.2-8-9.7-9.7c-3-1.1-6.3-1.7-9.5-1.8c-5.4-0.2-7-0.3-20.7-0.3s-15.3,0.1-20.7,0.3
	c-3.2,0.1-6.5,0.7-9.5,1.8c-4.5,1.7-8,5.2-9.7,9.7c-1.1,3-1.7,6.3-1.8,9.5c-0.2,5.4-0.3,7-0.3,20.7s0.1,15.3,0.3,20.7
	c0.1,3.2,0.7,6.5,1.8,9.5c1.7,4.5,5.2,8,9.7,9.7c3,1.1,6.3,1.7,9.5,1.8c5.4,0.2,7,0.3,20.7,0.3s15.3-0.1,20.7-0.3
	c3.2-0.1,6.5-0.7,9.5-1.8c4.5-1.7,8-5.2,9.7-9.7c1.1-3,1.7-6.3,1.8-9.5c0.2-5.4,0.3-7,0.3-20.7s-0.1-15.3-0.3-20.7
	C141.6,76.1,141,72.8,139.9,69.8z M100,126.3c-14.5,0-26.3-11.8-26.3-26.3S85.5,73.7,100,73.7s26.3,11.8,26.3,26.3
	S114.5,126.3,100,126.3L100,126.3z M127.3,78.9c-3.4,0-6.1-2.7-6.1-6.1c0-3.4,2.7-6.1,6.1-6.1c3.4,0,6.1,2.7,6.1,6.1
	C133.3,76.1,130.6,78.8,127.3,78.9L127.3,78.9z"/>
<path class="st0" d="M100,0C44.8,0,0,44.8,0,100s44.8,100,100,100s100-44.8,100-100S155.2,0,100,0z M150.8,121.1
	c-0.1,4.2-0.9,8.4-2.4,12.4c-2.7,6.9-8.1,12.3-15,15c-4,1.5-8.2,2.3-12.4,2.4c-5.5,0.2-7.2,0.3-21.1,0.3s-15.6-0.1-21.1-0.3
	c-4.2-0.1-8.4-0.9-12.4-2.4c-6.9-2.7-12.3-8.1-15-15c-1.5-4-2.3-8.2-2.4-12.4c-0.2-5.5-0.3-7.2-0.3-21.1s0.1-15.6,0.3-21.1
	c0.1-4.2,0.9-8.4,2.4-12.4c2.7-6.9,8.1-12.3,15-15c4-1.5,8.2-2.3,12.4-2.4c5.5-0.2,7.2-0.3,21.1-0.3s15.6,0.1,21.1,0.3
	c4.2,0.1,8.4,0.9,12.4,2.4c6.9,2.7,12.3,8.1,15,15c1.5,4,2.3,8.2,2.4,12.4c0.2,5.5,0.3,7.2,0.3,21.1S151.1,115.6,150.8,121.1z"/>
<path class="st1" d="M100,58.1c13.7,0,15.3,0.1,20.7,0.3c3.2,0.1,6.5,0.7,9.5,1.8c4.5,1.7,8,5.2,9.7,9.7c1.1,3,1.7,6.3,1.8,9.5
	c0.2,5.4,0.3,7,0.3,20.7s-0.1,15.3-0.3,20.7c-0.1,3.2-0.7,6.5-1.8,9.5c-1.7,4.5-5.2,8-9.7,9.7c-3,1.1-6.3,1.7-9.5,1.8
	c-5.4,0.2-7,0.3-20.7,0.3s-15.3-0.1-20.7-0.3c-3.2-0.1-6.5-0.7-9.5-1.8c-4.5-1.7-8-5.2-9.7-9.7c-1.1-3-1.7-6.3-1.8-9.5
	c-0.2-5.4-0.3-7-0.3-20.7s0.1-15.3,0.3-20.7c0.1-3.2,0.7-6.5,1.8-9.5c1.7-4.5,5.2-8,9.7-9.7c3-1.1,6.3-1.7,9.5-1.8
	C84.7,58.2,86.3,58.1,100,58.1 M100,48.9c-13.9,0-15.6,0.1-21.1,0.3c-4.2,0.1-8.4,0.9-12.4,2.4c-6.9,2.7-12.3,8.1-15,15
	c-1.5,4-2.3,8.2-2.4,12.4c-0.2,5.5-0.3,7.2-0.3,21.1s0.1,15.6,0.3,21.1c0.1,4.2,0.9,8.4,2.4,12.4c2.7,6.9,8.1,12.3,15,15
	c4,1.5,8.2,2.3,12.4,2.4c5.5,0.2,7.2,0.3,21.1,0.3s15.6-0.1,21.1-0.3c4.2-0.1,8.4-0.9,12.4-2.4c6.9-2.7,12.3-8.1,15-15
	c1.5-4,2.3-8.2,2.4-12.4c0.2-5.5,0.3-7.2,0.3-21.1s-0.1-15.6-0.3-21.1c-0.1-4.2-0.9-8.4-2.4-12.4c-2.7-6.9-8.1-12.3-15-15
	c-4-1.5-8.2-2.3-12.4-2.4C115.6,49,113.9,48.9,100,48.9z"/>
<path class="st1" d="M100,73.7c-14.5,0-26.3,11.8-26.3,26.3s11.8,26.3,26.3,26.3c14.5,0,26.3-11.8,26.3-26.3S114.5,73.7,100,73.7
	L100,73.7z M100,117c-9.4,0-17.1-7.7-17.1-17.1s7.7-17.1,17.1-17.1c9.4,0,17.1,7.7,17.1,17.1c0,0,0,0.1,0,0.1
	C117.1,109.4,109.4,117.1,100,117L100,117z"/>
<circle class="st1" cx="127.3" cy="72.7" r="6.1"/>
</svg>

