<?xml version="1.0" encoding="utf-8"?>
<!-- Generator: Adobe Illustrator 20.1.0, SVG Export Plug-In . SVG Version: 6.00 Build 0)  -->
<svg version="1.1" id="Layer_1" xmlns="http://www.w3.org/2000/svg" xmlns:xlink="http://www.w3.org/1999/xlink" x="0px" y="0px"
	 viewBox="0 0 200 200" style="enable-background:new 0 0 200 200;" xml:space="preserve">
<title>linkedin-solid</title>
<path class="st0" d="M100,0C44.8,0,0,44.8,0,100s44.8,100,100,100s100-44.8,100-100S155.2,0,100,0z M68.5,151.6H46.6V81.5h21.9
	V151.6z M57,72.7h-0.2c-7.9,0-13.1-5.4-13.1-12.2S49,48.3,57.1,48.3s13.1,5.2,13.2,12.2S65.2,72.7,57,72.7z M156.2,151.6h-24.8
	v-36.3c0-9.5-3.9-16-12.4-16c-6.5,0-10.2,4.4-11.9,8.6c-0.6,1.5-0.5,3.6-0.5,5.7v38H81.9c0,0,0.3-64.3,0-70.2h24.6v11
	c1.5-4.8,9.3-11.7,21.9-11.7c15.6,0,27.8,10.1,27.8,31.8V151.6z"/>
<path class="st1" d="M68.5,151.6H46.6V81.5h21.9V151.6z M57,72.7h-0.2c-7.9,0-13.1-5.4-13.1-12.2S49,48.3,57.1,48.3
	s13.1,5.2,13.2,12.2S65.2,72.7,57,72.7z M156.2,151.6h-24.8v-36.3c0-9.5-3.9-16-12.4-16c-6.5,0-10.2,4.4-11.9,8.6
	c-0.6,1.5-0.5,3.6-0.5,5.7v38H81.9c0,0,0.3-64.3,0-70.2h24.6v11c1.5-4.8,9.3-11.7,21.9-11.7c15.6,0,27.8,10.1,27.8,31.8V151.6z"/>
</svg>

