<svg id="Layer_1" data-name="Layer 1" xmlns="http://www.w3.org/2000/svg" viewBox="0 0 200 200"><defs><style>.cls-1{fill:#007ca8;}.cls-2{fill:#fff;}</style></defs><title>Passion - Solid</title><path class="cls-1" d="M106.4,112.5c7.4-12.7,15.8-35.6-5.1-53.7-1.4,11-8.4,23.6-20.4,36.1C72.4,103.7,69,112.2,70.6,120s9.9,17.3,22.2,23.8c-.1-12.4,6.1-20.8,10.5-26.8C104.4,115.4,105.6,113.8,106.4,112.5Z"/><path class="cls-1" d="M124.2,119.1a68.2,68.2,0,0,1-3.9,5.7c-3.7,5-7.5,10.2-7.9,17.5,8.9-6,15.3-14.4,17-22.7a17.9,17.9,0,0,0-.5-9.7A87.6,87.6,0,0,1,124.2,119.1Z"/><path class="cls-1" d="M100,.5A99.5,99.5,0,1,0,199.5,100,99.5,99.5,0,0,0,100,.5Zm-3.58,152c-23.58-9.95-48.16-32.93-20.3-62.09C92,73.73,96.72,59.3,94.23,50.15c-.5-1.89-.8-4.68,3-2,11.94,7.46,37.31,28.86,14.73,67.66-4.68,8-15.92,17.21-11.74,35.42C100.5,152.14,100.4,153.83,96.42,152.54Zm15.72-2.69c-3.28,1.09-4.68,3.18-6.17-3.38-1.49-15.22,8.26-23.58,12.44-30.84a75.32,75.32,0,0,0,6-12.64c.8-2.29,2.29-8.16,7.16-1.59,11.24,14.73,1.19,36.91-19.4,48.56Z"/><path class="cls-2" d="M100,200A100,100,0,1,1,200,100,100,100,0,0,1,100,200ZM100,6.6A93.4,93.4,0,1,0,193.4,100h0A93.5,93.5,0,0,0,100,6.6Z"/><path class="cls-2" d="M97.3,47.8c-3.9-2.7-3.6.1-3,2,2.6,9.2-2.1,23.8-18.2,40.5-28,29.3-3.3,52.4,20.4,62.4,4,1.3,4.1-.4,3.8-1.4-4.2-18.3,7.1-27.6,11.8-35.6C134.8,76.8,109.3,55.3,97.3,47.8Zm5.9,69.2c-4.4,6-10.5,14.4-10.5,26.8-12.3-6.5-20.4-15.1-22.2-23.8s1.8-16.3,10.3-25.1c12-12.5,19-25.2,20.4-36.1,20.9,18.1,12.6,40.9,5.1,53.7A41,41,0,0,1,103.2,117Z"/><path class="cls-2" d="M131.7,101.5c-4.9-6.7-6.4-.7-7.2,1.6a75.7,75.7,0,0,1-6,12.7c-4.3,7.3-14.1,15.7-12.5,31,1.5,6.6,3,4.6,6.2,3.4C132.9,138.5,143,116.2,131.7,101.5Zm-2.4,18.1c-1.7,8.3-8.1,16.7-17,22.7.4-7.3,4.2-12.5,7.9-17.5a68.2,68.2,0,0,0,3.9-5.7,87.6,87.6,0,0,0,4.7-9.2,17.9,17.9,0,0,1,.6,9.7Z"/></svg>