<svg xmlns="http://www.w3.org/2000/svg" viewBox="0 0 80 80"><defs><style>.cls-1{fill:#007ca8;}</style></defs><title>play</title><g id="Layer_2" data-name="Layer 2"><g id="Layer_1-2" data-name="Layer 1"><path class="cls-1" d="M40,80A40,40,0,1,1,80,40,40,40,0,0,1,40,80ZM40,2.63A37.37,37.37,0,1,0,77.37,40,37.42,37.42,0,0,0,40,2.63Z"/><path class="cls-1" d="M31.08,58.21a4.21,4.21,0,0,1-1.88-.46l-.06,0a3.89,3.89,0,0,1-1.91-3.36V25.65A3.82,3.82,0,0,1,33,22.35L57.42,36.69a3.82,3.82,0,0,1,0,6.64L33,57.67A3.75,3.75,0,0,1,31.08,58.21Zm-1-2.21A1.93,1.93,0,0,0,32,56L56.44,41.61a1.85,1.85,0,0,0,0-3.21L32,24a1.88,1.88,0,0,0-1.89,0,1.92,1.92,0,0,0-.93,1.65v28.7A1.93,1.93,0,0,0,30.13,56Z"/></g></g></svg>