<svg data-name="Layer 1" xmlns="http://www.w3.org/2000/svg" viewBox="0 0 200 200"><title>play-line</title><path d="M100,200A100,100,0,1,1,200,100,100.1,100.1,0,0,1,100,200ZM100,6.6A93.4,93.4,0,1,0,193.4,100,93.5,93.5,0,0,0,100,6.6Z"/><path d="M77.7,145.5a10.5,10.5,0,0,1-4.7-1.2h-.2a9.7,9.7,0,0,1-4.8-8.4V64.1a9.5,9.5,0,0,1,14.5-8.3l60.9,35.8a9.6,9.6,0,0,1,0,16.6l-61,35.9A9.4,9.4,0,0,1,77.7,145.5ZM75.3,140a4.8,4.8,0,0,0,4.7-.1L141.1,104a4.6,4.6,0,0,0,0-8L80,60.1a4.7,4.7,0,0,0-4.7-.1A4.8,4.8,0,0,0,73,64.1v71.8A4.8,4.8,0,0,0,75.3,140Z"/></svg>