<?xml version="1.0" encoding="UTF-8" standalone="no"?>
<svg width="579px" height="538px" viewBox="0 0 579 538" version="1.1" xmlns="http://www.w3.org/2000/svg" xmlns:xlink="http://www.w3.org/1999/xlink">
    <!-- Generator: Sketch 42 (36781) - http://www.bohemiancoding.com/sketch -->
    <title>quote</title>
    <desc>Created with Sketch.</desc>
    <defs>
        <polygon id="path-1" points="88.9096815 67.1298519 88.9096815 0.620814815 0.899369722 0.620814815 0.899369722 67.1298519"></polygon>
    </defs>
    <g id="Symbols" stroke="none" stroke-width="1" fill="none" fill-rule="evenodd">
        <g id="quote" transform="translate(0.000000, 1.000000)">
            <g>
                <path d="M80,109.30902 C128.84791,42.9997985 207.322504,0 295.808313,0 C443.92647,0 564,120.48519 564,269.111156 C564,280.93559 563.239494,292.581369 561.766807,304" id="Stroke-1" stroke="#C0E1ED" stroke-width="1.991" stroke-linecap="round" stroke-linejoin="round"></path>
                <path d="M513,425.838433 C464.221718,492.613494 385.287692,536 296.214417,536 C148.083707,536 28,416.012291 28,268" id="Stroke-3" stroke="#C0E1ED" stroke-width="1.991" stroke-linecap="round" stroke-linejoin="round"></path>
                <path d="M47.5631313,194.955475 C47.5631313,178.197947 61.6641414,161.442985 84.1313131,151 L87,153.912233 C73.6136364,161.442985 65.7272727,171.885971 65.7272727,182.813901 C65.7272727,200.056373 87,201.270017 87,202.242472 C87,209.526904 81.5025253,219 70.030303,219 C56.1666667,219 47.5631313,207.828315 47.5631313,194.955475 M0,194.955475 C0,178.197947 14.3409091,161.442985 36.8080808,151 L39.6742424,153.912233 C26.0505051,161.442985 18.6414141,171.885971 18.6414141,182.813901 C18.6414141,200.056373 39.6742424,201.270017 39.6742424,202.242472 C39.6742424,209.526904 34.1767677,219 22.7045455,219 C8.60353535,219 0,207.828315 0,194.955475" id="Fill-5" fill="#C0E1ED"></path>
                <g id="Group-9" transform="translate(490.000000, 335.000000)">
                    <mask id="mask-2" fill="white">
                        <use xlink:href="#path-1"></use>
                    </mask>
                    <g id="Clip-8"></g>
                    <path d="M48.773129,64.5055556 C62.5553558,57.1162222 70.0506392,46.8658519 70.0506392,36.1394815 C70.0506392,19.215037 48.773129,18.0212593 48.773129,17.0692593 C48.773129,9.91918519 54.5746929,0.620814815 65.9402401,0.620814815 C79.9651568,0.620814815 88.9114697,11.5864444 88.9114697,24.2193333 C88.9114697,40.907037 74.4037281,57.1162222 51.6751882,67.1298519 L48.773129,64.5055556 Z M0.899369722,64.5055556 C14.6790419,57.1162222 22.1743253,46.8658519 22.1743253,36.1394815 C22.1743253,19.215037 0.899369722,18.0212593 0.899369722,17.0692593 C0.899369722,9.91918519 6.4582438,0.620814815 18.0639262,0.620814815 C32.0888429,0.620814815 41.0351558,11.5864444 41.0351558,24.2193333 C41.0351558,40.907037 26.5274142,57.1162222 3.79887435,67.1298519 L0.899369722,64.5055556 Z" id="Fill-7" fill="#C0E1ED" mask="url(#mask-2)"></path>
                </g>
            </g>
            <text id="“Community-service-h" font-family="MuseoSlab-500, Museo Slab" font-size="24" font-weight="normal" line-spacing="48" fill="#FFFFFF">
                <tspan x="102.644" y="147">“Community service has always </tspan>
                <tspan x="102.08" y="195">been extremely important to us. </tspan>
                <tspan x="102.308" y="243">My father taught me that it’s the </tspan>
                <tspan x="133.412" y="291">communities where we do </tspan>
                <tspan x="129.356" y="339">business that allow us to be </tspan>
                <tspan x="222.344" y="387">successful.”</tspan>
            </text>
        </g>
    </g>
</svg>