<svg id="Layer_1" data-name="Layer 1" xmlns="http://www.w3.org/2000/svg" viewBox="0 0 200 199.63"><defs><style>.cls-1{fill:#fff;}</style></defs><title>SBA 1 Color</title><path class="cls-1" d="M13.44,199.63V178.27h3q2.53,9.65,8.17,14a20.48,20.48,0,0,0,12.92,4.38q7.07,0,10.06-3a9,9,0,0,0,3-6.34A7.66,7.66,0,0,0,47.43,181a41.27,41.27,0,0,0-8.34-4.17l-6.73-2.78q-10-4.13-14.11-8.17a13.49,13.49,0,0,1-4.1-10q0-6.32,5.44-11.8t16.66-5.48a42.47,42.47,0,0,1,11,1.43,48.26,48.26,0,0,0,6.09,1.43,2.9,2.9,0,0,0,2.38-.82,6.42,6.42,0,0,0,1.06-2.17h3.08v18.8H57A25.21,25.21,0,0,0,49.73,146,18.32,18.32,0,0,0,37,141.31q-5.26,0-8.32,2.38a7.13,7.13,0,0,0-3.06,5.79,7,7,0,0,0,2.88,6.11q2.83,2.07,12.59,6.07l7.79,3.2a31.33,31.33,0,0,1,8.29,4.76A15,15,0,0,1,63,181.52q0,6.53-6.19,12.32t-19.85,5.8a42.59,42.59,0,0,1-6.35-.48,40.59,40.59,0,0,1-6.35-1.5l-2-.63c-.47-.11-.93-.2-1.37-.27a7.21,7.21,0,0,0-1.11-.11,2.69,2.69,0,0,0-2.22.78,7.16,7.16,0,0,0-1.06,2.21Z"/><path class="cls-1" d="M88,146.87a3.76,3.76,0,0,1,1.26-3.27q1.27-.91,4.5-.91,6.12,0,8.27,3.37a15.14,15.14,0,0,1,2.15,8.3q0,6.66-3.29,9.27T88,166.26Zm7.69,51.54q13.2,0,21.14-4.45t7.94-11.61q0-7.67-8.29-12a33.39,33.39,0,0,0-10-3.12v-.8a24.74,24.74,0,0,0,10.14-4,9.74,9.74,0,0,0,4.68-8.49q0-8.8-11.53-12.14a56.34,56.34,0,0,0-15.37-1.77h-32v2.19a18.61,18.61,0,0,1,6.22,1q2.88,1.31,2.88,5.1v41.76c0,2.53-.64,3.64-2.7,4.54-1.22.54-3.91.27-6.71.35l.3,3.37ZM88,168.87q8.44-.13,12.39,1.73,6.53,3,6.53,12.22,0,6.15-3,9.48t-10.29,3.33q-3.59,0-4.85-1.86a6,6,0,0,1-.81-3.33Z"/><path class="cls-1" d="M153.53,198.29v-2.44h.37a27.89,27.89,0,0,0,6.54-.69c.9-.31,1.34-1.1,1.34-2.42a9.23,9.23,0,0,0-.79-2.94c-.33-.8-1.35-2.92-1.35-2.92L157,181.64l-5.44-11.08c-5,2.64-10.18,5.15-15.45,7.47l-2.81,6.16c-.88,2-1.48,3.38-1.8,4.12a14.61,14.61,0,0,0-1.34,4.7c0,1,.91,1.83,2.71,2.33a23.38,23.38,0,0,0,5.21.49h.38v2.46Z"/><path class="cls-1" d="M176.5,184.08c2.57,5,4.51,8.32,5.76,9.76s3.84,2,5.92,2h.25l0-52.77c-5,6.45-13.12,13.12-23,19.41Z"/><path class="cls-1" d="M135.88,177.63,145,158.08h.86L151.72,170l2,4,3.65,7.43L160,186.7s1,2.14,1.36,2.95a9.49,9.49,0,0,1,.81,3.08q0,2.23-1.6,2.78a27.93,27.93,0,0,1-6.65.72v2.19h34.53v-2.19c-2.36.06-5.19-.65-6.47-2.13s-3.22-4.76-5.81-9.84l-23.11-45.34h-2.88l-23,47.24a37.33,37.33,0,0,1-4.2,7.25,8.24,8.24,0,0,1-6,2.82v2.19h21.14v-2.19a23.49,23.49,0,0,1-5.31-.51c-2-.56-3-1.46-3-2.7a14.83,14.83,0,0,1,1.37-4.85c.31-.75.92-2.13,1.8-4.13Z"/><path class="cls-1" d="M105.41,189.16a138.21,138.21,0,0,1-16.69,3.64,3.08,3.08,0,0,0,.37.75c.77,1.13,2.29,1.7,4.54,1.7,4.75,0,8.12-1.08,10-3.2A10.07,10.07,0,0,0,105.41,189.16Z"/><path class="cls-1" d="M125.1,182.58c-.08,4.8-2.81,8.74-8.12,11.72a36.77,36.77,0,0,1-13.54,4h13.12v-2.46l.36,0a7.91,7.91,0,0,0,5.75-2.69,37.31,37.31,0,0,0,4.14-7.17l2.46-5C127.88,181.5,126.49,182,125.1,182.58Z"/><path class="cls-1" d="M55.9,195.1a29.55,29.55,0,0,1-7.54,3.55c3.09,0,9.73-.1,14.81-.22l.08-3.41C60.61,195.1,57.44,195.21,55.9,195.1Z"/></svg>