<svg id="Layer_1" data-name="Layer 1" xmlns="http://www.w3.org/2000/svg" viewBox="0 0 200 200"><defs><style>.cls-1{fill:#004163;}.cls-2{fill:#fff;}</style></defs><title>Strength - Solid</title><path class="cls-1" d="M57.2,74.1c3.9,0,7-3.9,7-8.7s-2.8-7.2-7-7.2-7,2.8-7,7.2S53.3,74.1,57.2,74.1Z"/><path class="cls-1" d="M100,69.5c5,0,9.1-5,9.1-11.1s-3.6-9.6-9.1-9.6-9.1,3.9-9.1,9.6S95,69.5,100,69.5Z"/><path class="cls-1" d="M142.8,74.1c3.9,0,7-3.9,7-8.7s-2.8-7.2-7-7.2-7,2.8-7,7.2S139,74.1,142.8,74.1Z"/><path class="cls-1" d="M100,.5A99.5,99.5,0,1,0,199.5,100,99.5,99.5,0,0,0,100,.5ZM142.59,53c7.26,0,12.34,5.17,12.34,12.54S149.35,79.5,142.59,79.5s-12.34-6.27-12.34-13.93S135.32,53,142.59,53ZM100,43.09c8.66,0,15,6.57,15,15.52s-6.77,17-15,17S85,68,85,58.61,91.34,43.09,100,43.09ZM57.41,53c7.26,0,12.34,5.17,12.34,12.54S64.18,79.5,57.41,79.5,45.08,73.23,45.08,65.57,50.05,53,57.41,53ZM39,127.66a2.69,2.69,0,0,0,2.59-2.59V99.7a2.69,2.69,0,0,1,5.37,0V125a8,8,0,0,1-16,0V91.84a9.65,9.65,0,0,1,9.65-9.65H69.85a13,13,0,0,0-2.79,5.37H40.7a4.28,4.28,0,0,0-4.38,4.18s0,.07,0,.1V125A2.69,2.69,0,0,0,39,127.66Zm91.34-28.76v48.46a9.55,9.55,0,0,1-19.1,0V100.6a3,3,0,1,1,6,0v46.77a3.58,3.58,0,0,0,7.16,0V90.75a5.67,5.67,0,0,0-5.67-5.67H81.29a5.67,5.67,0,0,0-5.67,5.67v56.52a3.58,3.58,0,0,0,7.16,0h0V100.5a3,3,0,0,1,6,0v46.76a9.55,9.55,0,1,1-19.1,0h0V90.75A11.64,11.64,0,0,1,81.29,79.2h37.41a11.64,11.64,0,0,1,11.64,11.64h0Zm38.71-.5v26.67a8,8,0,1,1-16,0V99.7a2.69,2.69,0,1,1,5.37,0h0V125a2.64,2.64,0,1,0,5.27,0V91.84a4.28,4.28,0,0,0-4.28-4.28H132.93a13,13,0,0,0-2.79-5.37H159.3A9.65,9.65,0,0,1,169,91.84Z"/><path class="cls-2" d="M100,200A100,100,0,1,1,200,100,100,100,0,0,1,100,200ZM100,6.6A93.4,93.4,0,1,0,193.4,100h0A93.5,93.5,0,0,0,100,6.6Z"/><path class="cls-2" d="M100,75.5c-8.3,0-15.1-7.7-15.1-17.1S91.3,42.8,100,42.8s15.1,6.6,15.1,15.6S108.3,75.5,100,75.5Zm0-26.7c-5.4,0-9.1,3.9-9.1,9.6S95,69.5,100,69.5s9.1-5,9.1-11.1S105.4,48.8,100,48.8Z"/><path class="cls-2" d="M142.8,79.5c-6.8,0-12.4-6.3-12.4-14s5.1-12.6,12.4-12.6,12.4,5.2,12.4,12.6S149.7,79.5,142.8,79.5Zm0-21.2c-4.3,0-7,2.8-7,7.2s3.2,8.7,7,8.7,7-3.9,7-8.7-2.7-7.3-7-7.3Z"/><path class="cls-2" d="M159.6,82.1H130.3a13.1,13.1,0,0,1,2.8,5.4h26.5a4.3,4.3,0,0,1,4.3,4.3h0v33.3a2.65,2.65,0,0,1-5.3,0V99.7a2.7,2.7,0,1,0-5.4,0h0v25.4a8.05,8.05,0,0,0,16.1,0V91.8a9.7,9.7,0,0,0-9.7-9.7Z"/><path class="cls-2" d="M118.8,79.1H81.2A11.7,11.7,0,0,0,69.5,90.7v56.8a9.6,9.6,0,0,0,19.2,0v-47a3,3,0,0,0-6,0v47a3.6,3.6,0,0,1-7.2,0V90.7A5.7,5.7,0,0,1,81.2,85h37.6a5.7,5.7,0,0,1,5.7,5.7v56.8a3.6,3.6,0,0,1-7.2,0v-47a3,3,0,0,0-6,0v47a9.6,9.6,0,1,0,19.2,0V90.7A11.7,11.7,0,0,0,118.8,79.1Z"/><path class="cls-2" d="M44.7,65.4c0-7.4,5.1-12.6,12.4-12.6S69.6,58,69.6,65.4s-5.6,14-12.4,14S44.7,73.2,44.7,65.4Zm5.4,0c0,4.8,3.2,8.7,7,8.7s7-3.9,7-8.7-2.8-7.2-7-7.2S50.1,61,50.1,65.4Z"/><path class="cls-2" d="M40.4,82.1H69.7a13.1,13.1,0,0,0-2.8,5.4H40.4A4.3,4.3,0,0,0,36,91.7s0,.07,0,.1v33.3a2.65,2.65,0,1,0,5.3,0h0V99.7a2.7,2.7,0,0,1,5.4,0v25.4a8.05,8.05,0,0,1-16.1,0V91.8a9.7,9.7,0,0,1,9.7-9.7Z"/></svg>