<?xml version="1.0" encoding="utf-8"?>
<!-- Generator: Adobe Illustrator 20.1.0, SVG Export Plug-In . SVG Version: 6.00 Build 0)  -->
<svg version="1.1" id="Layer_1" xmlns="http://www.w3.org/2000/svg" xmlns:xlink="http://www.w3.org/1999/xlink" x="0px" y="0px"
	 viewBox="0 0 200 200" xml:space="preserve">
<title>Twitter-Solid</title>
<path class="st0" d="M100,0C44.8,0,0,44.8,0,100s44.8,100,100,100s100-44.8,100-100S155.2,0,100,0z"/>
<path class="st1" d="M156,62.6c-4.2,2-8.6,3.3-13.2,3.9c4.9-3.2,8.5-8.1,10.1-13.7c-4.5,2.8-9.4,4.9-14.6,6
	c-4.2-4.9-10.3-7.8-16.8-7.8c-12.7,0-23,11.1-23,24.7c0,1.9,0.2,3.8,0.6,5.6c-19-1-36-10.9-47.3-25.8c-2.1,3.8-3.1,8.1-3.1,12.5
	c-0.1,8.1,3.7,15.7,10.2,20.5c-3.7-0.1-7.3-1.2-10.4-3.1v0.3c0,12,7.9,21.9,18.4,24.2c-2,0.6-4,0.8-6.1,0.8c-1.4,0-2.9-0.1-4.3-0.4
	c2.9,9.9,11.4,17,21.4,17.2c-7.9,6.8-18,10.6-28.5,10.6c-1.8,0-3.7-0.1-5.5-0.3c10.3,7.3,22.7,11.2,35.3,11.2
	c42.2,0,65.3-37.7,65.3-70.3c0-1,0-2.1-0.1-3.2C149,71.9,152.9,67.5,156,62.6z"/>
</svg>
