<svg id="Layer_1" data-name="Layer 1" xmlns="http://www.w3.org/2000/svg" viewBox="0 0 200 200"><defs><style>.cls-1{fill:#c0e1ed;}.cls-2{fill:#fff;}</style></defs><title>Vision - Solid</title><polygon class="cls-1" points="79.4 119.6 89.6 123.1 89.7 102.4 87.4 102.4 79.4 119.6"/><path class="cls-1" d="M115.3,63.8H77.6a33.5,33.5,0,0,0,0,24.8h37.8A51.8,51.8,0,0,1,115.3,63.8Z"/><path class="cls-1" d="M69,68.8H51.6a22,22,0,0,0,0,14.9H69A40.5,40.5,0,0,1,69,68.8Z"/><polygon class="cls-1" points="96.6 102.4 96.5 122.9 106.9 119.6 98.9 102.4 96.6 102.4"/><path class="cls-1" d="M100,.5A99.5,99.5,0,1,0,199.5,100,99.5,99.5,0,0,0,100,.5Zm49.85,99.8H121.79a3.48,3.48,0,0,1-3.08-2l-1.19-2.79H103.28l22.09,47.26a3.38,3.38,0,0,1-3.08,4.88,3.48,3.48,0,0,1-3.08-2l-9.45-20-13.23,4.28v27.26A3.48,3.48,0,0,1,93,160.7h0a3.48,3.48,0,0,1-3.38-3.48v-27l-13-4.38L68,145.77a3.48,3.48,0,0,1-3.08,2,3.38,3.38,0,0,1-3.08-4.88L83.09,95.62H75.42a3.48,3.48,0,0,1-3.08-2,18.68,18.68,0,0,1-1.19-3H49.55a3.48,3.48,0,0,1-3.08-2,28.76,28.76,0,0,1,0-24.58,3.48,3.48,0,0,1,3.08-2H71.15c.4-1,.8-2,1.29-3a3.48,3.48,0,0,1,3.08-2h42l1.19-2.79a3.48,3.48,0,0,1,3.08-2h28.06c6.67.7,9.65,12.54,9.65,23.88S156.62,99.5,149.85,100.3Z"/><path class="cls-1" d="M145.8,76.2c0,10.4,2.5,15.8,3.6,17,1.1-1.2,3.6-6.7,3.6-17s-2.5-15.8-3.6-17C148.3,60.4,145.8,65.9,145.8,76.2Z"/><path class="cls-1" d="M124.1,59a44.7,44.7,0,0,0,0,34.5h17.6c-1.8-4.4-2.8-10.5-2.8-17.2s1-12.9,2.8-17.2Z"/><path class="cls-2" d="M100,200A100,100,0,1,1,200,100,100,100,0,0,1,100,200ZM100,6.6A93.4,93.4,0,1,0,193.4,100h0A93.5,93.5,0,0,0,100,6.6Z"/><path class="cls-2" d="M150.1,52.2H121.9a3.5,3.5,0,0,0-3.1,2L117.6,57H75.3a3.5,3.5,0,0,0-3.1,2c-.5,1-.9,2-1.3,3H49.3a3.5,3.5,0,0,0-3.1,2,28.9,28.9,0,0,0,0,24.7,3.5,3.5,0,0,0,3.1,2H71l1.2,3a3.5,3.5,0,0,0,3.1,2H83L61.5,143.1a3.4,3.4,0,0,0,3.1,4.9,3.5,3.5,0,0,0,3.1-2l8.7-20.1,13.1,4.4v27.2A3.5,3.5,0,0,0,93,161h0a3.5,3.5,0,0,0,3.4-3.4V130.2l13.3-4.3,9.5,20.1a3.5,3.5,0,0,0,3.1,2,3.4,3.4,0,0,0,3.1-4.9L103.3,95.6h14.2l1.2,2.8a3.5,3.5,0,0,0,3.1,2H150c6.7-.8,9.8-12.6,9.8-24S156.8,52.9,150.1,52.2ZM51.6,83.7a22,22,0,0,1,0-14.9H69a40.5,40.5,0,0,0,0,14.9Zm38,39.4-10.2-3.5,8-17.2h2.3Zm6.9-.2V102.4h2.3l7.9,17.1ZM77.6,88.7a33.5,33.5,0,0,1,0-24.8h37.8a51.8,51.8,0,0,0,0,24.8Zm64.2,4.8H124.1a44.7,44.7,0,0,1,0-34.5h17.6c-1.8,4.4-2.8,10.5-2.8,17.2a47.66,47.66,0,0,0,2.9,17.3Zm7.7-.2c-1.1-1.2-3.6-6.6-3.6-17s2.5-15.8,3.6-17c1.1,1.2,3.6,6.6,3.6,17s-2.6,15.7-3.7,17Z"/></svg>