<svg id="Layer_1" data-name="Layer 1" xmlns="http://www.w3.org/2000/svg" viewBox="0 0 640 380"><title>Artboard 1</title><path d="M17.84,178.12H39.47v6.64H32.23l9.48,39.9c.43,2.16.69,4.57.69,4.57h.26s.34-2.41.86-4.57l12.75-46.54H63.6l12.67,46.54a32.51,32.51,0,0,1,.86,4.57h.34a42.72,42.72,0,0,1,.6-4.57l9.48-39.9H80.32v-6.64H102v6.64H96.18L82.56,239H72.74L60.85,195.79a27.8,27.8,0,0,1-.78-4.83h-.34a27.76,27.76,0,0,1-.78,4.83L47.06,239H37.23L23.7,184.76H17.84Z"/><path d="M122.16,212.17h2.76v-1.64c0-6.89-4-9.31-9.31-9.31a23.19,23.19,0,0,0-12.5,4.22l-3.36-5.95a28,28,0,0,1,16.55-5.17c11.12,0,17,5.77,17,16.8v19.48a1.69,1.69,0,0,0,1.9,1.9h4.39V239h-8.7c-3.88,0-5.43-1.9-5.43-4.74v-.6a10.61,10.61,0,0,1,.34-2.84h-.17A15.85,15.85,0,0,1,111.22,240c-7.24,0-14.48-4.22-14.48-13.18C96.74,213.12,114.92,212.17,122.16,212.17ZM113,233.54c7.41,0,12-7.58,12-14.13V217.6h-2.16c-4,0-17.67.17-17.67,8.53C105.18,230,108,233.54,113,233.54Z"/><path d="M145.12,201.82h-7.33v-6.46h7.5v-12h8.19v12h10.43v6.46H153.48v20.42c0,8.88,6,10,9.31,10,1.21,0,2-.09,2-.09v7a23.63,23.63,0,0,1-3,.17c-5.52,0-16.63-1.72-16.63-16.29Z"/><path d="M170.47,232.51H177V203.72a1.69,1.69,0,0,0-1.9-1.9H169.7v-6.46h9.82c3.79,0,5.6,1.55,5.6,5.08v2.76a25.27,25.27,0,0,1-.17,3h.17c2-6.38,7.07-11.37,13.79-11.37a14.87,14.87,0,0,1,2.15.17v8.27a11,11,0,0,0-2.41-.26c-9.31,0-13.27,9.39-13.27,17.93v11.55h6.46V239H170.47Z"/><path d="M211.18,201.82h-7.33v-6.46h15.68v26.2c0,6,1.21,10.86,8.19,10.86,8.7,0,14.13-8.36,14.13-17V201.82h-7.33v-6.46h15.68V230.7a1.72,1.72,0,0,0,1.9,1.9h4.57V239h-9c-3.79,0-5.52-1.72-5.52-4.83v-1.9a18.82,18.82,0,0,1,.17-2.59h-.17A17.83,17.83,0,0,1,225.49,240c-9.39,0-14.31-5.17-14.31-16.72Z"/><path d="M260.19,224.92h7.33v2.84c0,3.71,5.17,5.43,10,5.43s8.79-2,8.79-5.6c0-4.39-4.83-5.77-10.86-7.93-6.46-2.41-13.62-5.34-13.62-13.27,0-8.62,8.53-12.07,16.12-12.07,6.12,0,15.08,2.41,15.08,8.79v5.26H285.7v-2.84c0-2.67-3.45-4.48-7.67-4.48s-7.76,1.72-7.76,5.26c0,4.14,4.83,5.86,10.08,7.67,6.72,2.24,14.39,5.08,14.39,13.18,0,8.27-7.58,12.84-17.5,12.84-7.93,0-17.06-3.53-17.06-10.43Z"/><path d="M303.53,201.82H296.2v-6.46h7.5v-12h8.19v12h32.3v6.46h-32.3v20.42c0,8.88,6,10,9.31,10,1.21,0,2-.09,2-.09v7a23.63,23.63,0,0,1-3,.17c-5.52,0-16.63-1.72-16.63-16.29Z"/><path d="M349.42,194.33c13,0,23.53,9.57,23.53,22.75S362.44,240,349.42,240s-23.53-9.65-23.53-22.92S336.41,194.33,349.42,194.33Zm0,38.44c8.19,0,15-6.55,15-15.69s-6.81-15.51-15-15.51-15,6.46-15,15.51S341.15,232.76,349.42,232.76Z"/><path d="M378.67,184.59h-7.24v-6.46H387V226c0,3.71.86,6.2,4.65,6.2,1.38,0,2.33-.09,2.33-.09l-.09,6.89s-1.72.17-3.71.17c-6.2,0-11.55-2.5-11.55-12.67Z"/><path d="M417,194.33c13,0,23.53,9.57,23.53,22.75S430,240,417,240s-23.53-9.65-23.53-22.92S404,194.33,417,194.33Zm0,38.44c8.19,0,15-6.55,15-15.69s-6.81-15.51-15-15.51-15,6.46-15,15.51S408.7,232.76,417,232.76Z"/><path d="M507.8,250.09c3.71,0,6.55-2.59,8-6l1.81-4.31-15.25-37.92h-5.52v-6.46h19.91v6.46H511l9.74,25.94a20.24,20.24,0,0,1,.78,3.79h.26a26.32,26.32,0,0,1,1-3.79l9.65-25.94h-5.6v-6.46h19.31v6.46h-5.43l-17.24,44c-2.93,7.41-8.62,11.2-15.34,11.2a17.24,17.24,0,0,1-9.39-2.76l2.84-6.29A10.5,10.5,0,0,0,507.8,250.09Z"/><path d="M470.1,238.45c.42,0,.8,0,1.2-.07-.46,0-.92.05-1.4.06Z"/><path d="M469.77,238.45h0Z"/><path d="M471.63,238.37l-.33,0Z"/><path d="M483.31,195.36c-3.62,0-5,1.64-5,4.4a6.88,6.88,0,0,0,.17,1.72h-.17c-2.41-5-8.44-7.15-14.13-7.15-12.15,0-19.13,9.31-19.13,21.8,0,7.59,2.71,14.13,7.51,18.13L449.68,244a21,21,0,0,1,12.68-4.6c8.36,0,15.34,5.78,15.34,15.69,0,9.24-6,15.42-14.64,15.5-2.12-.15-6.31-1.69-7.08-2.44l-.32,7.62a12.44,12.44,0,0,0,7.18,2h.29c13,0,23.1-9.57,23.1-22.92a21.76,21.76,0,0,0-9.95-18.85c11.92-6.45,9.61-24.36,9.61-26.44v-6.32c0-.86.78-1.47,1.9-1.47h9.86v-6.46Zm-17.15,35.85c-7.84,0-12.58-6.2-12.58-15.25,0-8.88,4.31-14.39,11.81-14.39,6.81,0,12.32,3.27,12.32,14.65S472.2,231.21,466.16,231.21Z"/><path d="M17.84,110.33H35.69v5.48h-6l7.82,32.92c.35,1.78.57,3.77.57,3.77h.21s.29-2,.71-3.77l10.52-38.39h6L66,148.73a26.74,26.74,0,0,1,.71,3.77H67a35.17,35.17,0,0,1,.5-3.77l7.82-32.92h-6v-5.48H87.3v5.48H82.47L71.23,160.53h-8.1l-9.81-35.62a22.85,22.85,0,0,1-.64-4h-.29a22.85,22.85,0,0,1-.64,4l-9.81,35.62H33.84L22.67,115.81H17.84Z"/><path d="M90.72,155.2H96.4V115.67h-6v-5.33h12.87V129a20.14,20.14,0,0,1-.21,3h.14a14.9,14.9,0,0,1,13.44-8.25c8.46,0,12.37,4.62,12.37,13.79v17.7h5.62v5.33H122.07V139.06c0-5-1.07-9-6.83-9-7,0-12,6-12,13.65V155.2h5.69v5.33H90.72Z"/><path d="M159.68,138.42H162v-1.35c0-5.69-3.27-7.68-7.68-7.68A19.14,19.14,0,0,0,144,132.87l-2.77-4.9a23.1,23.1,0,0,1,13.65-4.27c9.17,0,14,4.76,14,13.86v16.07a1.39,1.39,0,0,0,1.56,1.56H174v5.33h-7.18c-3.2,0-4.48-1.56-4.48-3.91v-.5a8.73,8.73,0,0,1,.29-2.35h-.14a13.07,13.07,0,0,1-11.87,7.61c-6,0-11.94-3.48-11.94-10.88C138.7,139.2,153.71,138.42,159.68,138.42ZM152.14,156c6.11,0,9.88-6.26,9.88-11.66V142.9h-1.78c-3.27,0-14.58.14-14.58,7A6.07,6.07,0,0,0,152.14,156Z"/><path d="M182.64,129.89h-6v-5.33h6.19v-9.88h6.75v9.88h8.6v5.33h-8.6v16.85c0,7.32,5,8.25,7.68,8.25,1,0,1.63-.07,1.63-.07v5.76a19.53,19.53,0,0,1-2.49.14c-4.55,0-13.72-1.42-13.72-13.44Z"/><path d="M222.1,155.2h5.62V129.89h-6v-5.33h12.87V155.2h5.69v5.33H222.1Zm5.48-44.86h7.25v7h-7.25Z"/><path d="M245.42,148.94h6v2.35c0,3.06,4.26,4.48,8.25,4.48s7.25-1.64,7.25-4.62c0-3.63-4-4.76-9-6.54-5.33-2-11.23-4.41-11.23-10.95,0-7.11,7-10,13.29-10,5,0,12.44,2,12.44,7.25v4.34h-6v-2.35c0-2.2-2.84-3.7-6.33-3.7s-6.4,1.42-6.4,4.34c0,3.41,4,4.83,8.32,6.33,5.54,1.85,11.87,4.2,11.87,10.88s-6.26,10.59-14.43,10.59c-6.54,0-14.08-2.91-14.08-8.6Z"/><path d="M563.12,205.22c0-30.11,33.68-34.47,33.68-57.24,0-11.1-9.51-19.61-22.58-19.61-12.48,0-22.58,8.32-22.58,8.32L540.94,123a52.8,52.8,0,0,1,34.67-12.68c22.38,0,41.4,14.27,41.4,36.25,0,32.68-35.06,36-35.06,59.82v8.12H563.12Zm-.59,28.33h20V253h-20Z"/></svg>