<svg id="Layer_1" data-name="Layer 1" xmlns="http://www.w3.org/2000/svg" viewBox="0 0 200 200"><defs><style>.cls-1{fill:#407685;}.cls-2{fill:#fff;}</style></defs><title>Wisdom - Solid</title><path class="cls-1" d="M83.4,49A12.4,12.4,0,0,0,76,51.6a10.7,10.7,0,0,0-3.9,8.8,3.4,3.4,0,0,1-5.8,2.4c-4.8,2.8-7.4,8-7.4,15.6a3.4,3.4,0,0,1-6.4,1.5c-1.3,1.7-2.1,4.1-2.1,8s2.2,7.1,4.9,9.9,5.5,5.8,5.5,11a3.4,3.4,0,0,1-6.8,0h0c0-2.3-1.3-3.9-3.4-6A17.3,17.3,0,0,0,49,110a18.7,18.7,0,0,0,.3,3.5,18.2,18.2,0,0,0,4.1,8.6l.4-1.4a3.4,3.4,0,0,1,3.2-2.4h1a3.4,3.4,0,0,1,2.3,4.2,17.8,17.8,0,0,0-.9,5.3,11.8,11.8,0,0,0,1.9,6.7,11.3,11.3,0,0,0,4.1,3.7v-1.4a3.4,3.4,0,1,1,6.8,0c0,4.9,1.3,8.7,3.7,11.1a10.4,10.4,0,0,0,7.5,3,10.2,10.2,0,0,0,5.5-1.5,3.8,3.8,0,0,0,2-3.1V56.5A7.5,7.5,0,0,0,83.4,49ZM69.8,74.2a3.3,3.3,0,0,1,1.4-.3,3.4,3.4,0,0,1,3.1,2,2.4,2.4,0,0,0,2.2,1.7H77a2.6,2.6,0,0,0,2-2.8V60.5a3.4,3.4,0,1,1,6.8,0V74.8a9.4,9.4,0,0,1-7.4,9.3l-2,.2h0a9.1,9.1,0,0,1-8.3-5.6,3.4,3.4,0,0,1,1.7-4.5Zm16,65.6a3.4,3.4,0,0,1-6.8,0v-17a2.6,2.6,0,0,0-1.6-2.5h-.5c-.9,0-2.3.8-3.6,2.7a3.39,3.39,0,0,1-6.2-1.9h0a3.5,3.5,0,0,1,.6-1.9c2.4-3.6,5.7-5.7,9.2-5.7a8.1,8.1,0,0,1,2.5.4,9.3,9.3,0,0,1,6.4,8.9Zm1.4-42.6a17.6,17.6,0,0,1-10.6,3.6l-2.8-.2a24.6,24.6,0,0,1,.4,4.5,3.4,3.4,0,1,1-6.8,0c0-5.7-2-9.3-6.1-11.5a3.4,3.4,0,0,1,1.6-6.4h0a3.4,3.4,0,0,1,1.6.4,17.8,17.8,0,0,1,5.9,5A15.2,15.2,0,0,0,76.6,94a10.7,10.7,0,0,0,6.5-2.2,3.3,3.3,0,0,1,2-.7,3.4,3.4,0,0,1,2,6.1Z"/><path class="cls-1" d="M146,108.8a3.4,3.4,0,0,1-6.8,0c0-5.2,3.1-8.5,5.5-11s4.8-5.1,4.9-10-.8-6.3-2.1-8a3.4,3.4,0,0,1-6.4-1.5c0-7.6-2.6-12.7-7.4-15.6a3.3,3.3,0,0,1-2.4,1,3.4,3.4,0,0,1-3.4-3.4h0a10.6,10.6,0,0,0-3.9-8.8,12.3,12.3,0,0,0-7.4-2.6h0a7.5,7.5,0,0,0-7.5,7.5h0v89.8a3.9,3.9,0,0,0,2,3.1,10.2,10.2,0,0,0,5.5,1.5,10.4,10.4,0,0,0,7.5-3c2.3-2.4,3.7-6.1,3.7-11.1a3.4,3.4,0,0,1,6.8,0h0v1.4a11.2,11.2,0,0,0,4.1-3.7,11.7,11.7,0,0,0,1.9-6.7,17.9,17.9,0,0,0-.8-5.3,3.4,3.4,0,0,1,2.2-4.2h1a3.4,3.4,0,0,1,3.2,2.4l.4,1.4a18.4,18.4,0,0,0,4.1-8.6,18.6,18.6,0,0,0,.3-3.4,17.4,17.4,0,0,0-1.6-7.3C147.3,104.9,146,106.5,146,108.8ZM114.2,60.5a3.4,3.4,0,0,1,6.8,0V74.8a2.6,2.6,0,0,0,2.1,2.7h.5a2.4,2.4,0,0,0,2.2-1.7,3.4,3.4,0,0,1,6.5,1.4,3,3,0,0,1-.3,1.4,9.1,9.1,0,0,1-8.3,5.6h0l-2-.2a9.4,9.4,0,0,1-7.4-9.3ZM131.4,124a3.34,3.34,0,0,1-4.7-.9c-1.3-2-2.7-2.8-3.6-2.7h-.5a2.6,2.6,0,0,0-1.6,2.5v17a3.4,3.4,0,0,1-6.8,0v-17a9.3,9.3,0,0,1,6.4-8.9,8.1,8.1,0,0,1,2.5-.4c3.5,0,6.7,2.1,9.2,5.7a3.5,3.5,0,0,1,.6,1.9A3.4,3.4,0,0,1,131.4,124Zm1.3-19a3.4,3.4,0,1,1-6.8,0,24.9,24.9,0,0,1,.4-4.5l-2.8.2a17.6,17.6,0,0,1-10.6-3.6,3.37,3.37,0,0,1,2-6.1h0a3.3,3.3,0,0,1,2,.7,10.7,10.7,0,0,0,6.5,2.2,15.2,15.2,0,0,0,6.2-1.5,17.9,17.9,0,0,1,5.9-5h0a3.4,3.4,0,1,1,3.2,6c-4,2.3-6,6-6.1,11.6Z"/><path class="cls-1" d="M100,.5A99.5,99.5,0,1,0,199.5,100,99.5,99.5,0,0,0,100,.5ZM97.71,146.17a10.25,10.25,0,0,1-4.18,8.16,16.32,16.32,0,0,1-10,3.18,17.11,17.11,0,0,1-12.24-5,18,18,0,0,1-4.18-6.77,17.91,17.91,0,0,1-14-15.42,24.08,24.08,0,0,1-10-15.72,25.07,25.07,0,0,1-.4-4.68A23.48,23.48,0,0,1,46.47,97,17.51,17.51,0,0,1,44,87.86c-.1-8.06,2.89-13.53,9.25-16.82A20.9,20.9,0,0,1,66.17,55.72a16.52,16.52,0,0,1,7.16-10,19.5,19.5,0,0,1,10.25-3.18A14.23,14.23,0,0,1,97.71,56.72ZM157,114.63a24.08,24.08,0,0,1-10,15.72,17.91,17.91,0,0,1-14,15.42,18.11,18.11,0,0,1-4.18,6.77,17.11,17.11,0,0,1-12.14,5,16.32,16.32,0,0,1-10-3.18,10.25,10.25,0,0,1-4.18-8.16V56.72a14.23,14.23,0,0,1,14.23-14.23h0a19.5,19.5,0,0,1,10.25,3.18,16.52,16.52,0,0,1,7.16,10A21,21,0,0,1,147,71c6.37,3.28,9.35,8.76,9.25,16.82A17.51,17.51,0,0,1,153.73,97,23.58,23.58,0,0,1,157.51,110a24.87,24.87,0,0,1-.5,4.68Z"/><path class="cls-2" d="M100,200A100,100,0,1,1,200,100,100,100,0,0,1,100,200ZM100,6.6A93.4,93.4,0,1,0,193.4,100h0A93.5,93.5,0,0,0,100,6.6Z"/><path class="cls-2" d="M79.4,113.9a8.1,8.1,0,0,0-2.5-.4c-3.5,0-6.7,2.1-9.2,5.7a3.5,3.5,0,0,0-.6,1.9,3.4,3.4,0,0,0,3.4,3.4h0a3.4,3.4,0,0,0,2.8-1.5c1.3-2,2.7-2.8,3.6-2.7h.5a2.6,2.6,0,0,1,1.6,2.5v17a3.4,3.4,0,1,0,6.8,0v-17A9.3,9.3,0,0,0,79.4,113.9Z"/><path class="cls-2" d="M76.4,84.3h0l2-.2L78.2,83l.2,1.1a9.4,9.4,0,0,0,7.4-9.3V60.5a3.4,3.4,0,1,0-6.8,0V74.8a2.6,2.6,0,0,1-2,2.7h-.5a2.4,2.4,0,0,1-2.2-1.7,3.4,3.4,0,0,0-3.1-2,3.3,3.3,0,0,0-1.4.3,3.4,3.4,0,0,0-1.7,4.5h0A9.1,9.1,0,0,0,76.4,84.3Z"/><path class="cls-2" d="M83.4,42.3a19.6,19.6,0,0,0-10.3,3.2,16.6,16.6,0,0,0-7.2,10.1A21,21,0,0,0,52.9,71c-6.4,3.3-9.4,8.8-9.3,16.9A17.6,17.6,0,0,0,46,97.1a23.6,23.6,0,0,0-3.8,13,25.2,25.2,0,0,0,.4,4.7,24.2,24.2,0,0,0,10.1,15.8A18,18,0,0,0,67,146a18.1,18.1,0,0,0,4.2,6.8,17.2,17.2,0,0,0,12.3,5,16.4,16.4,0,0,0,10-3.2,10.3,10.3,0,0,0,4.2-8.2V56.5A14.3,14.3,0,0,0,83.4,42.3Zm5.5,107.2a10.2,10.2,0,0,1-5.5,1.5,10.4,10.4,0,0,1-7.5-3c-2.4-2.4-3.7-6.1-3.7-11.1a3.4,3.4,0,0,0-6.8,0v1.4a11.3,11.3,0,0,1-4.1-3.7,11.8,11.8,0,0,1-1.9-6.7,17.8,17.8,0,0,1,.9-5.3,3.4,3.4,0,0,0-2.3-4.2H57a3.4,3.4,0,0,0-3.2,2.4l-.4,1.4a18.2,18.2,0,0,1-4.1-8.6A18.7,18.7,0,0,1,49,110a17.3,17.3,0,0,1,1.6-7.3c2.1,2.2,3.4,3.7,3.4,6a3.4,3.4,0,0,0,6.8,0h0c0-5.2-3.1-8.5-5.5-11s-4.8-5.1-4.9-9.9.8-6.3,2.1-8a3.4,3.4,0,0,0,6.4-1.5c0-7.6,2.6-12.7,7.4-15.6a3.4,3.4,0,0,0,5.8-2.4A10.7,10.7,0,0,1,76,51.6,12.4,12.4,0,0,1,83.4,49a7.5,7.5,0,0,1,7.5,7.5h0v89.8A3.8,3.8,0,0,1,88.9,149.5Z"/><path class="cls-2" d="M85.1,91.1a3.3,3.3,0,0,0-2,.7A10.7,10.7,0,0,1,76.6,94a15.2,15.2,0,0,1-6.2-1.5,17.8,17.8,0,0,0-5.9-5,3.4,3.4,0,0,0-5,3h0a3.4,3.4,0,0,0,1.8,3c4,2.2,6,5.9,6.1,11.5a3.4,3.4,0,0,0,6.8,0,24.6,24.6,0,0,0-.4-4.5l2.8.2a17.6,17.6,0,0,0,10.6-3.6,3.4,3.4,0,0,0-2-6.1Z"/><path class="cls-2" d="M121.6,84.1l2,.2h0a9.1,9.1,0,0,0,8.3-5.6,3,3,0,0,0,.3-1.4,3.4,3.4,0,0,0-6.5-1.4h0a2.4,2.4,0,0,1-2.2,1.7H123a2.6,2.6,0,0,1-2.1-2.7V60.5a3.4,3.4,0,1,0-6.8,0V74.8A9.4,9.4,0,0,0,121.6,84.1Z"/><path class="cls-2" d="M154,97.1a17.6,17.6,0,0,0,2.5-9.2c.1-8.1-2.9-13.6-9.3-16.9a21.1,21.1,0,0,0-13-15.4A16.6,16.6,0,0,0,127,45.5a19.6,19.6,0,0,0-10.3-3.2,14.3,14.3,0,0,0-14.3,14.3h0v89.8a10.3,10.3,0,0,0,4.2,8.2,16.4,16.4,0,0,0,10.1,3.2h0a17.2,17.2,0,0,0,12.2-5,18.2,18.2,0,0,0,4.2-6.8,18,18,0,0,0,14.1-15.5,24.2,24.2,0,0,0,10.1-15.8,25,25,0,0,0,.4-4.7A23.7,23.7,0,0,0,154,97.1Zm-3.3,16.4a18.4,18.4,0,0,1-4.1,8.6l-.4-1.4a3.4,3.4,0,0,0-3.2-2.4h-1a3.4,3.4,0,0,0-2.2,4.2,17.9,17.9,0,0,1,.8,5.3,11.7,11.7,0,0,1-1.9,6.7,11.2,11.2,0,0,1-4.1,3.7v-1.4a3.4,3.4,0,1,0-6.8,0c0,4.9-1.3,8.7-3.7,11.1a10.4,10.4,0,0,1-7.5,3,10.2,10.2,0,0,1-5.5-1.5,3.9,3.9,0,0,1-2-3.1V56.5a7.5,7.5,0,0,1,7.5-7.5h0a12.3,12.3,0,0,1,7.4,2.6,10.6,10.6,0,0,1,3.9,8.8,3.4,3.4,0,0,0,3.4,3.4,3.3,3.3,0,0,0,2.4-1c4.8,2.8,7.4,8,7.4,15.6a3.4,3.4,0,0,0,6.4,1.5c1.3,1.7,2.1,4.1,2.1,8s-2.2,7.1-4.9,10-5.5,5.8-5.5,11a3.4,3.4,0,1,0,6.8,0c0-2.3,1.3-3.9,3.4-6A17.3,17.3,0,0,1,151,110a18.6,18.6,0,0,1-.3,3.4Z"/><path class="cls-2" d="M140.5,90.5a3.4,3.4,0,0,0-5-3h0a17.9,17.9,0,0,0-5.9,5,15.2,15.2,0,0,1-6.2,1.5,10.8,10.8,0,0,1-6.5-2.2,3.3,3.3,0,0,0-2-.7,3.4,3.4,0,0,0-2,6.1,17.6,17.6,0,0,0,10.6,3.6l2.8-.2a24.9,24.9,0,0,0-.4,4.5,3.4,3.4,0,1,0,6.8,0h0c0-5.7,2-9.3,6.1-11.5A3.4,3.4,0,0,0,140.5,90.5Z"/><path class="cls-2" d="M123.1,113.6a8.1,8.1,0,0,0-2.5.4h0a9.3,9.3,0,0,0-6.4,8.9v17a3.4,3.4,0,0,0,6.8,0v-17a2.6,2.6,0,0,1,1.6-2.5h.5c.9,0,2.3.8,3.6,2.7a3.39,3.39,0,0,0,6.2-1.9,3.5,3.5,0,0,0-.6-1.9C129.8,115.7,126.6,113.6,123.1,113.6Z"/></svg>