<svg id="wtb-logo" data-name="Layer 1" xmlns="http://www.w3.org/2000/svg" viewBox="0 0 300 100"><defs><style>.cls-1,.cls-2{fill:#fff;}.cls-1{fill-rule:evenodd;}</style></defs><title>wtb-logo-fdic</title><path class="cls-1" d="M56.6,58.3h3.6c2-8.8,2.3-10,2.8-13.3h.1c.6,3.3.9,4.9,2.8,13.3h3.7l5.2-17H70.9c-2.4,9.4-2.7,10.8-3,12.5h-.1c-.4-2.2-.6-3.1-2.7-12.5H61.1c-1.9,8.9-2.2,10.7-2.6,12.5h-.1c-.3-1.9-.6-3.1-2.9-12.5H51.4l5.2,17Z"/><path class="cls-1" d="M84.6,49c0-3.1-3.5-3.7-5.4-3.7s-5.7.5-6.1,4.4h3.5c.1-.7.4-1.8,2.2-1.8s2.4.1,2.4,1.5-.7.9-1.3,1l-3.2.5c-2.3.3-4,1.6-4,4s2.1,3.7,4.1,3.7a5.7,5.7,0,0,0,4.4-1.8,5.2,5.2,0,0,0,.3,1.5h3.9v-.5c-.4-.1-.8-.5-.8-2V49Zm-3.8,4.8c0,1.5-1.6,2.5-3.2,2.5a1.5,1.5,0,0,1-1.7-1.5c0-1.4,1.1-1.7,2.4-1.9a5.6,5.6,0,0,0,2.4-.7v1.6Z"/><path class="cls-1" d="M97.1,49.5c-.3-3.6-3.5-4.2-6.1-4.2-4.2,0-5.5,2.4-5.5,4.2,0,4.7,8.4,3.1,8.4,5.2,0,.5-.4,1.3-2.3,1.3s-3-.8-3-1.9H85c.1,3.4,3.5,4.4,6.6,4.4s6-.7,6-4.3S89,51.1,89,49.1s.3-1.2,2.2-1.2,2.3.9,2.4,1.7Z"/><path class="cls-1" d="M110.6,49.6c0-2.8-2.1-4.2-4.7-4.2a4.3,4.3,0,0,0-3.9,2h-.1V41.3H98.3v17h3.6V51.1a2.7,2.7,0,0,1,2.8-2.9c2.3,0,2.3,1.6,2.3,2.5v7.7h3.6V49.6Z"/><path class="cls-1" d="M111.9,45.7V58.3h3.6V45.7Zm3.6-4.6h-3.6v3.1h3.6V41.1Z"/><path class="cls-1" d="M129.1,49.6c0-2.8-2.1-4.2-4.7-4.2a4.4,4.4,0,0,0-4.1,2.2h-.1V45.7h-3.4V58.3h3.6V51.1a2.7,2.7,0,0,1,2.8-2.9c2.3,0,2.3,1.6,2.3,2.5v7.7h3.6V49.6Z"/><path class="cls-2" d="M147.2,42.3h-3.6v3.4h-8.4v2.4h8.4v7.7c0,1.6.6,2.7,3.7,2.7h2.1V55.9h-.7c-1.5,0-1.5-.3-1.5-1V48.1h2.2V45.7h-2.2V42.3Z"/><path class="cls-1" d="M163,52c0-4.6-3.3-6.6-7-6.6s-7,2.1-7,6.6,3.3,6.6,7,6.6,7-2.1,7-6.6Zm-3.7,0c0,1.6-.5,3.8-3.3,3.8s-3.3-2.2-3.3-3.8.5-3.8,3.3-3.8,3.3,2.2,3.3,3.8Z"/><path class="cls-1" d="M176,49.6c0-2.8-2.1-4.2-4.7-4.2a4.4,4.4,0,0,0-4.1,2.2h-.1V45.7h-3.4V58.3h3.6V51.1a2.7,2.7,0,0,1,2.8-2.9c2.3,0,2.3,1.6,2.3,2.5v7.7H176V49.6Z"/><polygon class="cls-1" points="188.2 44.3 193.8 44.3 193.8 41.3 178.8 41.3 178.8 44.3 184.4 44.3 184.4 58.3 188.2 58.3 188.2 44.3 188.2 44.3"/><path class="cls-1" d="M190.4,58.3H194V51.7c0-1.4.5-3,3.3-3h1V45.4h-.7c-2.2,0-3,1.2-3.7,2.5h-.1V45.7h-3.4V58.3Z"/><path class="cls-1" d="M211.4,45.7h-3.6V53a2.6,2.6,0,0,1-2.8,2.9,2.1,2.1,0,0,1-2.3-2.3V45.7h-3.6V54c0,3.2,1.9,4.6,4.6,4.6a4.6,4.6,0,0,0,4.1-2.1h.1v1.8h3.4V45.7Z"/><path class="cls-1" d="M224.2,49.5c-.3-3.6-3.5-4.2-6.1-4.2-4.2,0-5.5,2.4-5.5,4.2,0,4.7,8.4,3.1,8.4,5.2,0,.5-.4,1.3-2.3,1.3s-3-.8-3-1.9h-3.7c.1,3.4,3.5,4.4,6.6,4.4s6-.7,6-4.3-8.5-3.2-8.5-5.2.3-1.2,2.2-1.2,2.3.9,2.4,1.7Z"/><path class="cls-2" d="M228.6,42.3H225V55.7c0,1.6.6,2.7,3.7,2.7h2.2V55.9h-.7c-1.5,0-1.5-.3-1.5-1V48.1h2.2V45.7h-2.2V42.3Z"/><path class="cls-1" d="M131.7,65.6c.1-.1,1.1-1.8,1.1-1.8a6.8,6.8,0,0,0,2.9.6c1.4,0,4.5-.9,4.2-3.4s-3.3-3.2-4.7-3.2-2.9.3-3.4.8a20.6,20.6,0,0,1,1.5-2.4c1-.8.4-.9,1.8-.9,3.4,0,7.8,1.9,7.5,5.6s-3.7,5.9-7.1,5.9a6.3,6.3,0,0,1-3.9-1.3Z"/><path class="cls-1" d="M133.4,51.4c0-1.8,1.1-3.3,2.4-3.3s2.4,1.5,2.4,3.3-1.1,3.3-2.4,3.3-2.4-1.5-2.4-3.3Zm-3.7,0a6.1,6.1,0,0,1,12.2,0,6.1,6.1,0,0,1-12.2,0Z"/><path class="cls-2" d="M43,49.7v7.8A6.5,6.5,0,0,1,36.6,64h-.9V49.7Z"/><polygon class="cls-2" points="16.3 42 24.1 42 24.1 64 16.3 64 16.3 42 16.3 42"/><path class="cls-2" d="M14.7,64H13.3a6.5,6.5,0,0,1-6.5-6.5V42h7.9V64Z"/><path class="cls-2" d="M43,47.7V39.6a6.5,6.5,0,0,0-6.5-6.5H13.3a6.5,6.5,0,0,0-6.5,6.5v.5H33.7a2,2,0,0,1,2,2v5.5Z"/><path class="cls-2" d="M33.7,42V57.5A6.8,6.8,0,0,1,26.8,64h-.9V42Z"/><path class="cls-2" d="M251.2,65.3V61.1h-1.1l-1.6,3.6h0L247,61.1h-1.1v4.2h.7V62.9c0-.1,0-.7,0-1h0l1.5,3.5h.7l1.5-3.5h0c0,.4,0,.9,0,1.1v2.5Z"/><path class="cls-1" d="M254.9,64.4c0,.2-.4.6-1,.6s-1.2-.4-1.2-1h2.9a1.6,1.6,0,0,0-1.7-1.8,1.7,1.7,0,0,0-1.9,1.7,1.6,1.6,0,0,0,1.8,1.5,2.1,2.1,0,0,0,1.1-.2,1.3,1.3,0,0,0,.7-.8Zm-2.2-.8a1,1,0,0,1,1.1-.9c.8,0,1.1.4,1.1.9Z"/><path class="cls-2" d="M256.5,65.3h.7V63.7a1,1,0,0,1,1.1-1,.5.5,0,0,1,.6.6v2.1h.7V63.5a.9.9,0,0,1,.9-.8c.6,0,.7.3.7.7v2h.7V63.2a1.1,1.1,0,0,0-1.2-1,1.6,1.6,0,0,0-1.2.5,1.1,1.1,0,0,0-1.1-.5,1.5,1.5,0,0,0-1.2.5h0v-.4h-.6v3.1Z"/><path class="cls-1" d="M263.4,65.3V65h0a1.3,1.3,0,0,0,1.1.5,1.6,1.6,0,0,0,1.8-1.7,1.7,1.7,0,0,0-2.8-1.1h0V61.1h-.7v4.2Zm2.2-1.5a1,1,0,0,1-1.1,1.2,1,1,0,0,1-1.1-1c0-.5.1-1.3,1.1-1.3a1,1,0,0,1,1.1,1.2Z"/><path class="cls-1" d="M269.8,64.4c0,.2-.4.6-1,.6s-1.2-.4-1.2-1h2.9a1.6,1.6,0,0,0-1.7-1.8,1.7,1.7,0,0,0-1.9,1.7,1.6,1.6,0,0,0,1.8,1.5,2.1,2.1,0,0,0,1.1-.2,1.3,1.3,0,0,0,.7-.8Zm-2.2-.8a1,1,0,0,1,1.1-.9c.8,0,1.1.4,1.1.9Z"/><path class="cls-2" d="M272.1,63.6c0-.4.4-.8,1-.8h.3v-.5h-.2a1.3,1.3,0,0,0-1.1.6h0v-.5h-.6v3.1h.7V63.6Z"/><polygon class="cls-2" points="276.9 63.4 279.6 63.4 279.6 62.9 276.9 62.9 276.9 61.6 279.9 61.6 279.9 61.1 276.1 61.1 276.1 65.3 276.9 65.3 276.9 63.4 276.9 63.4"/><path class="cls-1" d="M280.8,65.3h2.2a2.1,2.1,0,0,0,2.3-2.2,2.1,2.1,0,0,0-2.3-2.1h-2.2v4.2Zm.7-3.7h1.4a1.5,1.5,0,0,1,1.6,1.6,1.5,1.5,0,0,1-1.6,1.6h-1.4V61.6Z"/><polygon class="cls-2" points="287.1 61.1 286.3 61.1 286.3 65.3 287.1 65.3 287.1 61.1 287.1 61.1"/><path class="cls-2" d="M292.9,62.4c-.1-.7-.8-1.4-2.3-1.4s-2.6.9-2.6,2.2a2.2,2.2,0,0,0,2.5,2.2,2.3,2.3,0,0,0,2.4-1.7h-.7a1.5,1.5,0,0,1-1.6,1.2,1.6,1.6,0,0,1-1.8-1.8,1.6,1.6,0,0,1,1.8-1.7c.5,0,1.3.1,1.5.9Z"/><path class="cls-1" d="M237,58.3h7.9c3.8,0,4.9-.6,5.9-1.5a4.7,4.7,0,0,0,1.6-3.5,4,4,0,0,0-2.9-4.1,3.4,3.4,0,0,0,2.3-3.5c0-1.8-1.2-4.4-5.8-4.4H237v17Zm3.8-7.5h5c1.4,0,2.8.6,2.8,2.1s-1.1,2.5-3,2.5h-4.8V50.8Zm0-6.6h4.5c1.8,0,2.9.4,2.9,1.8s-1.2,1.9-2.8,1.9h-4.6V44.2Z"/><path class="cls-1" d="M264.9,49c0-3.1-3.6-3.7-5.5-3.7s-5.8.5-6.2,4.4h3.5c.1-.7.4-1.8,2.2-1.8s2.4.1,2.4,1.5-.7.9-1.3,1l-3.3.5c-2.3.3-4,1.6-4,4s2.1,3.7,4.2,3.7a5.9,5.9,0,0,0,4.5-1.8,5.1,5.1,0,0,0,.3,1.5h3.9v-.5c-.4-.1-.8-.5-.8-2V49Zm-3.6,4.8c0,1.5-1.6,2.5-3.3,2.5a1.5,1.5,0,0,1-1.7-1.5c0-1.4,1.1-1.7,2.5-1.9a5.7,5.7,0,0,0,2.5-.7v1.6Z"/><path class="cls-1" d="M278.9,49.6c0-2.8-2.1-4.2-4.8-4.2a4.5,4.5,0,0,0-4.2,2.2h-.1V45.7h-3.5V58.3H270V51.1a2.7,2.7,0,0,1,2.9-2.9c2.3,0,2.4,1.6,2.4,2.5v7.7h3.7V49.6Z"/><polygon class="cls-1" points="284.2 53.2 288.4 58.3 292.7 58.3 287 51.8 293.3 45.7 288.8 45.7 284.2 50.5 284.2 41.3 280.5 41.3 280.5 58.3 284.2 58.3 284.2 53.2 284.2 53.2"/></svg>