<svg version="1.1" id="Layer_1" xmlns="http://www.w3.org/2000/svg" xmlns:xlink="http://www.w3.org/1999/xlink" x="0px" y="0px"
	 viewBox="0 0 238.3 70" style="enable-background:new 0 0 238.3 70;" xml:space="preserve">
<g>
	<path class="st0" d="M194.7,39.2c0.2,0,0.3,0,0.5,0C195,39.2,194.8,39.2,194.7,39.2C194.6,39.2,194.7,39.2,194.7,39.2z"/>
	<path class="st0" d="M194.6,39.2C194.6,39.2,194.6,39.2,194.6,39.2C194.6,39.2,194.6,39.2,194.6,39.2L194.6,39.2z"/>
	<path class="st0" d="M195.3,39.2c0,0-0.1,0-0.1,0C195.2,39.2,195.3,39.2,195.3,39.2z"/>
	<g>
		<path class="st0" d="M24.6,51h-0.7l-2.1-7.5h0.8l1.8,6.4l1.9-6.4h0.9l1.9,6.4l1.7-6.4h0.8L29.4,51h-0.7l-2-6.6L24.6,51z"/>
		<path class="st0" d="M33.3,44.3c-0.3,0-0.5-0.3-0.5-0.6c0-0.3,0.2-0.5,0.5-0.5c0.3,0,0.5,0.3,0.5,0.5C33.8,44,33.7,44.3,33.3,44.3
			z M33,51v-5.5l0.7-0.2V51H33z"/>
		<path class="st0" d="M36.9,51.2c-0.6,0-1.3-0.2-1.8-0.5l0.2-0.7c0.5,0.3,1.1,0.5,1.6,0.5c0.7,0,1.2-0.3,1.2-0.9
			c0-0.7-0.7-0.9-1.4-1.1c-0.8-0.2-1.6-0.6-1.6-1.6c0-1,0.8-1.6,1.9-1.6c0.6,0,1.2,0.2,1.7,0.4l-0.2,0.7C38,46.2,37.5,46,37,46
			c-0.7,0-1.1,0.3-1.1,0.8c0,0.6,0.6,0.8,1.4,1c0.8,0.2,1.6,0.6,1.6,1.6C38.9,50.5,38,51.2,36.9,51.2z"/>
		<path class="st0" d="M44,42.9l0.7-0.2V51H44c0,0,0-0.5,0-0.5c-0.4,0.3-0.9,0.7-1.6,0.7C41,51.2,40,50,40,48.3
			c0-1.7,1.1-2.9,2.7-2.9c0.5,0,1,0.1,1.3,0.3V42.9z M42.7,46.1c-1.2,0-1.9,0.9-1.9,2.2c0,1.3,0.7,2.2,1.8,2.2
			c0.6,0,1.1-0.3,1.5-0.6c0,0,0-3.4,0-3.4C43.7,46.2,43.2,46.1,42.7,46.1z"/>
		<path class="st0" d="M48.9,51.2c-1.5,0-2.7-1.1-2.7-2.9c0-1.8,1.2-2.9,2.7-2.9s2.6,1.1,2.6,2.9C51.6,50,50.4,51.2,48.9,51.2z
			 M48.9,46C47.8,46,47,47,47,48.3c0,1.3,0.8,2.2,1.9,2.2c1.2,0,1.9-0.9,1.9-2.2C50.9,46.9,50.1,46,48.9,46z"/>
		<path class="st0" d="M59.9,51v-3.5c0-1-0.4-1.4-1.2-1.4c-0.6,0-1.1,0.3-1.5,0.7c0,0.1,0,0.4,0,0.5V51h-0.7v-3.5
			c0-1-0.4-1.4-1.2-1.4c-0.6,0-1.1,0.3-1.5,0.6V51h-0.7v-5.5l0.7-0.2c0,0,0,0.7,0,0.8c0.6-0.5,1.2-0.8,1.7-0.8
			c0.7,0,1.2,0.3,1.5,0.9c0.6-0.6,1.3-0.9,1.9-0.9c1,0,1.7,0.7,1.7,1.9V51H59.9z"/>
		<path class="st0" d="M62.8,51.2c-0.3,0-0.6-0.3-0.6-0.6s0.3-0.6,0.6-0.6s0.6,0.3,0.6,0.6S63.1,51.2,62.8,51.2z"/>
		<path class="st0" d="M70.6,51h-0.9l-2.7-7.5h0.8l2.4,6.7l2.4-6.7h0.8L70.6,51z"/>
		<path class="st0" d="M74.8,44.3c-0.3,0-0.5-0.3-0.5-0.6c0-0.3,0.2-0.5,0.5-0.5c0.3,0,0.5,0.3,0.5,0.5C75.3,44,75.2,44.3,74.8,44.3
			z M74.5,51v-5.5l0.7-0.2V51H74.5z"/>
		<path class="st0" d="M78.4,51.2c-0.6,0-1.3-0.2-1.8-0.5l0.2-0.7c0.5,0.3,1.1,0.5,1.6,0.5c0.7,0,1.2-0.3,1.2-0.9
			c0-0.7-0.7-0.9-1.4-1.1c-0.8-0.2-1.6-0.6-1.6-1.6c0-1,0.8-1.6,1.9-1.6c0.6,0,1.2,0.2,1.7,0.4L80,46.4c-0.5-0.3-1-0.4-1.5-0.4
			c-0.7,0-1.1,0.3-1.1,0.8c0,0.6,0.6,0.8,1.4,1c0.8,0.2,1.6,0.6,1.6,1.6C80.4,50.5,79.5,51.2,78.4,51.2z"/>
		<path class="st0" d="M82.2,44.3c-0.3,0-0.5-0.3-0.5-0.6c0-0.3,0.2-0.5,0.5-0.5c0.3,0,0.5,0.3,0.5,0.5C82.7,44,82.5,44.3,82.2,44.3
			z M81.8,51v-5.5l0.7-0.2V51H81.8z"/>
		<path class="st0" d="M86.7,51.2c-1.5,0-2.7-1.1-2.7-2.9c0-1.8,1.2-2.9,2.7-2.9s2.6,1.1,2.6,2.9C89.4,50,88.3,51.2,86.7,51.2z
			 M86.8,46c-1.2,0-1.9,0.9-1.9,2.2c0,1.3,0.8,2.2,1.9,2.2c1.2,0,1.9-0.9,1.9-2.2C88.7,46.9,87.9,46,86.8,46z"/>
		<path class="st0" d="M94.5,51v-3.5c0-1-0.4-1.4-1.2-1.4c-0.6,0-1.2,0.3-1.7,0.8V51h-0.7v-5.5l0.7-0.2v0.9c0.6-0.6,1.3-0.9,1.9-0.9
			c1.1,0,1.8,0.7,1.8,1.9V51H94.5z"/>
		<path class="st0" d="M97.4,51.2c-0.3,0-0.6-0.3-0.6-0.6s0.3-0.6,0.6-0.6s0.6,0.3,0.6,0.6S97.7,51.2,97.4,51.2z"/>
		<path class="st0" d="M104.2,48.4l-1,0V51h-0.8v-7.5c0,0,1.8,0,1.9,0c2,0,2.9,1,2.9,2.3C107.2,47.5,106,48.3,104.2,48.4z
			 M104.2,44.2c-0.1,0-1.1,0-1.1,0v3.4l1.1,0c1.4,0,2.2-0.6,2.2-1.8C106.4,44.8,105.6,44.2,104.2,44.2z"/>
		<path class="st0" d="M111.4,50.4c-0.4,0.5-1,0.8-1.6,0.8c-1,0-1.7-0.6-1.7-1.5c0-1,0.8-1.8,3.3-2c0,0,0-0.3,0-0.3
			c0-0.9-0.4-1.3-1.3-1.3c-0.6,0-1.3,0.3-1.8,0.7l-0.2-0.7c0.5-0.3,1.3-0.7,2-0.7c1.3,0,2,0.6,2,2c0,0,0,2.6,0,2.6
			c0,0.4,0.1,0.6,0.6,0.6l0,0.6C112,51.2,111.6,50.9,111.4,50.4L111.4,50.4z M111.4,48.2c-1.9,0.2-2.6,0.6-2.6,1.4
			c0,0.6,0.5,1,1.1,1c0.6,0,1.1-0.3,1.4-0.7V48.2z"/>
		<path class="st0" d="M115.3,51.2c-0.6,0-1.3-0.2-1.8-0.5l0.2-0.7c0.5,0.3,1.1,0.5,1.6,0.5c0.7,0,1.2-0.3,1.2-0.9
			c0-0.7-0.7-0.9-1.4-1.1c-0.8-0.2-1.6-0.6-1.6-1.6c0-1,0.8-1.6,1.9-1.6c0.6,0,1.2,0.2,1.7,0.4l-0.2,0.7c-0.5-0.3-1-0.4-1.5-0.4
			c-0.7,0-1.1,0.3-1.1,0.8c0,0.6,0.6,0.8,1.4,1c0.8,0.2,1.6,0.6,1.6,1.6C117.2,50.5,116.4,51.2,115.3,51.2z"/>
		<path class="st0" d="M120.1,51.2c-0.6,0-1.3-0.2-1.8-0.5l0.2-0.7c0.5,0.3,1.1,0.5,1.6,0.5c0.7,0,1.2-0.3,1.2-0.9
			c0-0.7-0.7-0.9-1.4-1.1c-0.8-0.2-1.6-0.6-1.6-1.6c0-1,0.8-1.6,1.9-1.6c0.6,0,1.2,0.2,1.7,0.4l-0.2,0.7c-0.5-0.3-1-0.4-1.5-0.4
			c-0.7,0-1.1,0.3-1.1,0.8c0,0.6,0.6,0.8,1.4,1c0.8,0.2,1.6,0.6,1.6,1.6C122,50.5,121.2,51.2,120.1,51.2z"/>
		<path class="st0" d="M123.9,44.3c-0.3,0-0.5-0.3-0.5-0.6c0-0.3,0.2-0.5,0.5-0.5s0.5,0.3,0.5,0.5C124.4,44,124.2,44.3,123.9,44.3z
			 M123.5,51v-5.5l0.7-0.2V51H123.5z"/>
		<path class="st0" d="M128.4,51.2c-1.5,0-2.7-1.1-2.7-2.9c0-1.8,1.2-2.9,2.7-2.9s2.6,1.1,2.6,2.9C131.1,50,129.9,51.2,128.4,51.2z
			 M128.4,46c-1.2,0-1.9,0.9-1.9,2.2c0,1.3,0.8,2.2,1.9,2.2s1.9-0.9,1.9-2.2C130.4,46.9,129.6,46,128.4,46z"/>
		<path class="st0" d="M136.2,51v-3.5c0-1-0.4-1.4-1.2-1.4c-0.6,0-1.2,0.3-1.7,0.8V51h-0.7v-5.5l0.7-0.2v0.9
			c0.6-0.6,1.3-0.9,1.9-0.9c1.1,0,1.8,0.7,1.8,1.9V51H136.2z"/>
		<path class="st0" d="M139,51.2c-0.3,0-0.6-0.3-0.6-0.6s0.3-0.6,0.6-0.6c0.3,0,0.6,0.3,0.6,0.6S139.4,51.2,139,51.2z"/>
		<path class="st0" d="M147.7,49.1c0-0.9-0.7-1.2-1.9-1.6c-1.1-0.3-2.2-0.8-2.2-2.1c0-1.2,1-2,2.4-2c0.9,0,1.6,0.2,2.3,0.6l-0.3,0.7
			c-0.6-0.4-1.3-0.6-2-0.6c-1.1,0-1.7,0.6-1.7,1.3c0,0.8,0.7,1.1,1.9,1.5c1.1,0.3,2.2,0.8,2.2,2.2c0,1.2-1,2.2-2.5,2.2
			c-0.9,0-1.7-0.3-2.4-0.7l0.3-0.7c0.6,0.4,1.3,0.7,2.2,0.7C147,50.5,147.7,49.9,147.7,49.1z"/>
		<path class="st0" d="M151.5,51.2c-1,0-1.5-0.6-1.5-1.7l0.1-3.2l-0.8,0l0-0.5l0.8-0.2l0-1.2h0.7l0,1.3h1.8l0,0.7h-1.8l-0.1,3.3
			c0,0.7,0.2,1,0.8,1c0.4,0,0.7-0.1,1.1-0.3l0.1,0.6C152.3,51.1,151.9,51.2,151.5,51.2z"/>
		<path class="st0" d="M154.7,51H154v-5.5l0.7-0.2v1.2c0.4-0.7,0.9-1.2,1.6-1.2c0.4,0,0.7,0.1,1,0.3l-0.2,0.7
			c-0.2-0.1-0.5-0.2-0.8-0.2c-0.6,0-1.1,0.4-1.5,1.4V51z"/>
		<path class="st0" d="M158.7,48.4c0,1.2,0.8,2.1,1.9,2.1c0.6,0,1.2-0.2,1.6-0.5l0.1,0.7c-0.5,0.3-1.1,0.5-1.8,0.5
			c-1.6,0-2.7-1.2-2.7-2.9c0-1.7,1.1-3,2.6-3c1.2,0,2,0.8,2,2c0,0.3,0,0.6-0.1,0.9L158.7,48.4L158.7,48.4z M161.8,47.7
			c0-0.1,0-0.2,0-0.2c0-0.8-0.5-1.4-1.3-1.4c-1,0-1.6,0.8-1.7,1.7L161.8,47.7z"/>
		<path class="st0" d="M167.6,51v-3.5c0-1-0.4-1.4-1.2-1.4c-0.6,0-1.2,0.3-1.7,0.8V51H164v-5.5l0.7-0.2v0.9c0.6-0.6,1.3-0.9,1.9-0.9
			c1.1,0,1.8,0.7,1.8,1.9V51H167.6z"/>
		<path class="st0" d="M169.9,50.2c0-0.5,0.4-0.9,0.9-1c-0.5-0.3-0.9-0.9-0.9-1.7c0-1.2,0.9-2.1,2.2-2.1c0.6,0,1,0.2,1.3,0.3
			l1.5-0.1l0,0.7l-1.2-0.1c0.3,0.3,0.4,0.8,0.4,1.2c0,1.2-0.9,2-2.1,2c-0.3,0-0.5-0.1-0.8-0.2c-0.3,0.1-0.6,0.3-0.6,0.7
			c0,0.3,0.3,0.6,1.2,0.6c0,0,0.8,0,0.7,0c1.6,0,2.3,0.5,2.3,1.4c0,1.2-1.4,2-2.9,2c-1.5,0-2.5-0.6-2.5-1.6c0-0.6,0.5-1.2,1.2-1.4
			C170.1,50.9,169.9,50.5,169.9,50.2z M170.1,52.3c0,0.6,0.7,1.1,1.9,1.1c1.1,0,2.1-0.6,2.1-1.3c0-0.6-0.6-0.9-1.7-0.9
			c-0.4,0-0.8,0-1.2,0C170.6,51.4,170.1,51.8,170.1,52.3z M172,48.8c0.8,0,1.4-0.6,1.4-1.4c0-0.8-0.5-1.4-1.4-1.4
			c-0.9,0-1.4,0.6-1.4,1.5C170.6,48.2,171.1,48.8,172,48.8z"/>
		<path class="st0" d="M177.4,51.2c-1,0-1.5-0.6-1.5-1.7l0.1-3.2l-0.8,0l0-0.5l0.8-0.2l0-1.2h0.7l0,1.3h1.8l0,0.7h-1.8l-0.1,3.3
			c0,0.7,0.2,1,0.8,1c0.4,0,0.7-0.1,1.1-0.3l0.1,0.6C178.3,51.1,177.8,51.2,177.4,51.2z"/>
		<path class="st0" d="M183.6,51v-3.5c0-1-0.4-1.4-1.2-1.4c-0.6,0-1.2,0.3-1.7,0.8V51H180v-8.1l0.7-0.2c0,0,0,3.4,0,3.5
			c0.6-0.6,1.3-0.9,1.9-0.9c1.1,0,1.7,0.7,1.7,1.9V51H183.6z"/>
		<path class="st0" d="M186.4,51.2c-0.3,0-0.6-0.3-0.6-0.6s0.3-0.6,0.6-0.6c0.3,0,0.6,0.3,0.6,0.6S186.7,51.2,186.4,51.2z"/>
	</g>
	<g>
		<path class="st0" d="M44.5,17.6h2.4V15h-8.7v2.7h2.9l-3.8,16c-0.2,0.9-0.2,1.8-0.2,1.8h-0.1c0,0-0.1-1-0.3-1.8L31.4,15h-2.9
			l-5.1,18.7c-0.2,0.9-0.3,1.8-0.3,1.8h-0.1c0,0-0.1-1-0.3-1.8l-3.8-16h2.9V15h-8.7v2.7h2.4l5.4,21.8h3.9l4.8-17.3
			c0.2-0.9,0.3-1.9,0.3-1.9H30c0,0,0.1,1.1,0.3,1.9l4.8,17.3h3.9L44.5,17.6z"/>
		<path class="st0" d="M59.4,36.1v-7.8c0-4.4-2.4-6.7-6.8-6.7c-4.1,0-6.6,2.1-6.6,2.1l1.3,2.4c0,0,2.2-1.7,5-1.7
			c2.1,0,3.7,1,3.7,3.7v0.7H55c-2.9,0-10.2,0.4-10.2,5.9c0,3.6,2.9,5.3,5.8,5.3c4.3,0,5.8-3.7,5.8-3.7h0.1c0,0-0.1,0.5-0.1,1.1v0.2
			c0,1.1,0.6,1.9,2.2,1.9H62v-2.6h-1.8C59.7,36.8,59.4,36.6,59.4,36.1z M56.1,31.6c0,2.6-1.8,5.7-4.8,5.7c-2,0-3.1-1.4-3.1-3
			c0-3.4,5.5-3.4,7.1-3.4h0.9V31.6z"/>
		<path class="st0" d="M67.5,32.7v-8.2h4.2v-2.6h-4.2v-4.8h-3.3v4.8h-3v2.6h2.9V33c0,5.8,4.5,6.5,6.7,6.5c0.7,0,1.2-0.1,1.2-0.1
			v-2.8c0,0-0.3,0-0.8,0C70,36.7,67.5,36.3,67.5,32.7z"/>
		<path class="st0" d="M80.4,32.2c0-3.4,1.6-7.2,5.3-7.2c0.6,0,1,0.1,1,0.1v-3.3c0,0-0.4-0.1-0.9-0.1c-2.7,0-4.7,2-5.5,4.6h-0.1
			c0,0,0.1-0.5,0.1-1.2v-1.1c0-1.4-0.7-2-2.2-2h-3.9v2.6h2.2c0.5,0,0.8,0.2,0.8,0.8v11.6h-2.6v2.6h8.6v-2.6h-2.6V32.2z"/>
		<path class="st0" d="M106.4,36.1V21.9h-6.3v2.6h2.9V30c0,3.5-2.2,6.8-5.7,6.8c-2.8,0-3.3-1.9-3.3-4.4V21.9h-6.3v2.6h2.9v8.6
			c0,4.6,2,6.7,5.7,6.7c4.4,0,6.3-3.2,6.7-4.2h0.1c0,0-0.1,0.4-0.1,1v0.8c0,1.2,0.7,1.9,2.2,1.9h3.6v-2.6h-1.8
			C106.7,36.9,106.4,36.6,106.4,36.1z"/>
		<path class="st0" d="M118.5,29.4c-2.1-0.7-4-1.4-4-3.1c0-1.4,1.5-2.1,3.1-2.1c1.7,0,3.1,0.7,3.1,1.8v1.1h2.9V25
			c0-2.6-3.6-3.5-6.1-3.5c-3,0-6.5,1.4-6.5,4.8c0,3.2,2.9,4.4,5.5,5.3c2.4,0.9,4.4,1.4,4.4,3.2c0,1.5-1.6,2.2-3.5,2.2
			c-1.9,0-4-0.7-4-2.2v-1.1h-2.9v1.9c0,2.8,3.7,4.2,6.9,4.2c4,0,7-1.8,7-5.2C124.3,31.4,121.2,30.3,118.5,29.4z"/>
		<path class="st0" d="M146.2,21.5c-1,0-2,0.1-2.9,0.4h-12.2v-4.8h-3.3v4.8h-3v2.6h2.9V33c0,5.8,4.5,6.5,6.7,6.5
			c0.7,0,1.2-0.1,1.2-0.1v-2.8c0,0-0.3,0-0.8,0c-1.3,0-3.7-0.5-3.7-4v-8.2h8c-1.5,1.6-2.4,3.7-2.4,6.1c0,5.3,4.2,9.2,9.4,9.2
			s9.4-3.9,9.4-9.2C155.7,25.3,151.5,21.5,146.2,21.5z M146.2,36.9c-3.3,0-6-2.6-6-6.3c0-3.6,2.7-6.2,6-6.2c3.3,0,6,2.6,6,6.2
			C152.2,34.3,149.5,36.9,146.2,36.9z"/>
		<path class="st0" d="M161.3,34.2V15h-6.3v2.6h2.9v16.9c0,4.1,2.1,5.1,4.6,5.1c0.8,0,1.5-0.1,1.5-0.1l0-2.8c0,0-0.4,0-0.9,0
			C161.7,36.7,161.3,35.7,161.3,34.2z"/>
		<path class="st0" d="M173.4,21.5c-5.2,0-9.4,3.8-9.4,9.1c0,5.3,4.2,9.2,9.4,9.2s9.4-3.9,9.4-9.2C182.8,25.3,178.6,21.5,173.4,21.5
			z M173.4,36.9c-3.3,0-6-2.6-6-6.3c0-3.6,2.7-6.2,6-6.2c3.3,0,6,2.6,6,6.2C179.4,34.3,176.6,36.9,173.4,36.9z"/>
		<path class="st0" d="M223,24.5h2.2v-2.6h-7.8v2.6h2.2l-3.9,10.4c-0.3,0.8-0.4,1.5-0.4,1.5h-0.1c0,0-0.1-0.8-0.3-1.5l-3.9-10.4h2.3
			v-2.6h-7.7h-0.3H200c-1.5,0-2,0.7-2,1.8c0,0.5,0.1,0.7,0.1,0.7H198c-1-2-3.4-2.9-5.7-2.9c-4.9,0-7.7,3.7-7.7,8.8
			c0,3,1.1,5.7,3,7.3l-1.2,3.9c0.9-0.7,2.7-1.8,5.1-1.8c3.4,0,6.2,2.3,6.2,6.3c0,3.7-2.4,6.2-5.9,6.2c-0.9-0.1-2.5-0.7-2.8-1
			c-0.1,3.1-0.1,3.1-0.1,3.1s1,0.8,2.9,0.8v0c0,0,0.1,0,0.1,0c5.2,0,9.3-3.8,9.3-9.2c0-3.4-1.6-6-4-7.6c4.8-2.6,3.9-9.8,3.9-10.6
			v-2.5c0-0.3,0.3-0.6,0.8-0.6h3.6h0.3h1.9l6.1,15.2l-0.7,1.7c-0.6,1.4-1.7,2.4-3.2,2.4c-1.5,0-2.5-0.8-2.5-0.8l-1.1,2.5
			c0,0,1.5,1.1,3.8,1.1c2.7,0,5-1.5,6.2-4.5L223,24.5z M197.7,30.3c0,4.6-2.2,6-4.6,6c-3.1,0-5.1-2.5-5.1-6.1c0-3.6,1.7-5.8,4.7-5.8
			C195.5,24.4,197.7,25.7,197.7,30.3z"/>
	</g>
</g>
</svg>