<?xml version="1.0" encoding="utf-8"?>
<!-- Generator: Adobe Illustrator 20.1.0, SVG Export Plug-In . SVG Version: 6.00 Build 0)  -->
<svg version="1.1" id="Layer_1" xmlns="http://www.w3.org/2000/svg" xmlns:xlink="http://www.w3.org/1999/xlink" x="0px" y="0px"
	 viewBox="0 0 200 200" style="enable-background:new 0 0 200 200;" xml:space="preserve">

<title>youtube-solid</title>
<path class="st0" d="M116.1,98.1l-21.9-16c-1.1-0.9-2.8-0.7-3.7,0.4C90.2,83,90,83.7,90,84.3v31.9c0,1,0.5,1.9,1.4,2.4l1.2,0.3
	c0.6,0,1.1-0.2,1.6-0.5l21.9-15.9c1.2-0.8,1.5-2.4,0.7-3.6c-0.2-0.3-0.4-0.5-0.7-0.7V98.1z"/>
<path class="st0" d="M100,0C44.8,0,0,44.8,0,100s44.8,100,100,100s100-44.8,100-100S155.2,0,100,0z M152.4,125.7
	c-0.1,0.4-0.2,0.8-0.3,1.2l-0.2,0.6c-1.4,4.2-5.4,7.1-9.8,7.1h0.7c-14.2,1.9-28.6,2.9-42.9,2.9c-14.3,0-28.7-1-42.9-2.9h0.7
	c-4.4,0-8.4-2.9-9.8-7.1l-0.2-0.6c-0.1-0.4-0.2-0.8-0.3-1.2c-1.1-8.5-1.7-17.1-1.7-25.7c0.1-8.6,0.7-17.2,1.9-25.7
	c0.1-0.4,0.2-0.8,0.3-1.2l0.2-0.6c1.4-4.2,5.4-7.1,9.8-7.1h-0.7c14.2-1.9,28.5-2.9,42.8-2.9c14.3,0,28.7,1,42.9,2.9h-0.7
	c4.4,0,8.4,2.9,9.8,7.1l0.2,0.6c0.1,0.4,0.2,0.8,0.3,1.2c1.2,8.5,1.8,17.1,1.9,25.7C154.3,108.6,153.6,117.2,152.4,125.7z"/>
<path class="st1" d="M152.4,74.3c-0.1-0.4-0.2-0.8-0.3-1.2l-0.2-0.6c-1.4-4.2-5.4-7.1-9.8-7.1h0.7c-14.2-1.9-28.5-2.9-42.8-2.9
	c-14.3,0-28.7,1-42.9,2.9h0.7c-4.4,0-8.4,2.9-9.8,7.1l-0.2,0.6c-0.1,0.4-0.2,0.8-0.3,1.2c-1.1,8.5-1.7,17.1-1.8,25.7
	c0.1,8.6,0.7,17.2,1.9,25.7c0.1,0.4,0.2,0.8,0.3,1.2l0.2,0.6c1.4,4.2,5.4,7.1,9.8,7.1h-0.7c14.2,1.9,28.6,2.9,42.9,2.9
	c14.3,0,28.7-1,42.9-2.9h-0.7c4.4,0,8.4-2.9,9.8-7.1l0.2-0.6c0.1-0.4,0.2-0.8,0.3-1.2c1.2-8.5,1.8-17.1,1.9-25.7
	C154.3,91.4,153.6,82.8,152.4,74.3z M116,102.3l-21.8,16c-0.5,0.3-1,0.5-1.6,0.5l-1.2-0.3c-0.9-0.5-1.4-1.4-1.4-2.4V84.3
	c0-1.4,1.1-2.6,2.5-2.7c0.6,0,1.2,0.2,1.7,0.6l21.9,15.9c1.2,0.8,1.5,2.4,0.7,3.6c-0.2,0.3-0.4,0.5-0.7,0.7L116,102.3z"/>
</svg>

